<?xml version="1.0" encoding="utf-8"?>
<!-- Generator: Adobe Illustrator 23.0.6, SVG Export Plug-In . SVG Version: 6.00 Build 0)  -->
<svg version="1.1" xmlns="http://www.w3.org/2000/svg" xmlns:xlink="http://www.w3.org/1999/xlink" x="0px" y="0px"
	 viewBox="0 0 1000 1000" style="enable-background:new 0 0 1000 1000;" xml:space="preserve">
<style type="text/css">
	.st0{fill:#1B3ECF;}
	.st1{opacity:0.749;}
	.st2{fill:#1B2468;}
	.st3{opacity:0.7412;}
	.st4{opacity:0.6784;}
	.st5{opacity:0.7216;}
	.st6{opacity:0.6588;}
	.st7{opacity:0.6392;}
	.st8{opacity:0.702;}
	.st9{opacity:0.7294;}
	.st10{fill:#56575D;}
	.st11{opacity:0.7098;}
	.st12{fill:#FFFFFF;}
	.st13{opacity:0.6196;}
	.st14{fill:#555555;}
	.st15{opacity:0.5;}
	.st16{opacity:0.3608;}
	.st17{opacity:0.3;}
	.st18{fill:#5D70FE;}
	.st19{opacity:0.3804;}
	.st20{fill:#1F2437;}
</style>
<g id="Layer_39">
	<g id="_x30_4m_1_">
		<g id="Rounded_Rectangle_6">
			<g>
				<path class="st0" d="M783.91,769.66H299.92c-3.24,0-5.87,2.63-5.87,5.87v17.6c0,3.24,2.63,5.87,5.87,5.87h483.99
					c3.24,0,5.87-2.63,5.87-5.87v-17.6C789.77,772.29,787.15,769.66,783.91,769.66z"/>
			</g>
		</g>
	</g>
	<g id="shadow_75_1_">
		<g id="shadow_75" class="st1">
			<g>
				<path class="st2" d="M356.31,794.19c-22.04-0.29-28.45-0.29-34.58-0.29v-19.45h18.67c-1.31,3.13-1.48,5.67-0.54,8
					C341.48,786.46,346.41,789.98,356.31,794.19z"/>
			</g>
			<g>
				<path class="st2" d="M340.25,774.56c-1.27,3.09-1.42,5.62-0.48,7.93c1.61,3.97,6.42,7.46,16.03,11.59
					c-21.5-0.28-27.92-0.28-33.96-0.28v-19.24H340.25 M340.56,774.36h-18.93v19.65c6.31,0,12.62,0,35.2,0.3
					C340.56,787.46,337.17,782.28,340.56,774.36L340.56,774.36z"/>
			</g>
		</g>
	</g>
	<g id="Layer_36">
		<g id="Rounded_Rectangle_6_copy">
			<g>
				<path class="st0" d="M787.46,767.33L323,709.9c-3.11-0.38-5.95,1.91-6.35,5.13l-2.16,17.47c-0.4,3.22,1.8,6.13,4.91,6.52
					l464.46,57.43c3.11,0.38,5.95-1.91,6.35-5.13l2.16-17.47C792.76,770.64,790.56,767.72,787.46,767.33z"/>
			</g>
		</g>
	</g>
	<g id="shadow_74_1_">
		<g id="shadow_74" class="st3">
			<g>
				<path class="st2" d="M352.82,739.07v-25.75l18.86,8.01c-0.54,6.8-1.24,16.02,10.4,20.5L352.82,739.07z"/>
			</g>
			<g>
				<path class="st2" d="M352.92,713.47l18.65,7.92c-0.53,6.69-1.17,15.69,9.82,20.27l-28.47-2.69V713.47 M352.72,713.17v25.99
					c13.49,1.27,23.03,2.17,30.13,2.85c-12.24-4.31-11.65-13.41-11.07-20.74C366.55,719.04,360.3,716.39,352.72,713.17
					L352.72,713.17z"/>
			</g>
		</g>
	</g>
	<g id="Layer_38">
		<g id="Ellipse_1">
			<g>
				<ellipse class="st0" cx="801.51" cy="817.18" rx="22.29" ry="25.23"/>
			</g>
		</g>
	</g>
	<g id="Layer_28">
		<g id="Rounded_Rectangle_13">
			<g>
				<path class="st0" d="M801.46,733L481.92,571.27c-2.08-1.05-4.57-0.33-5.56,1.62l-14.31,28.27c-0.99,1.95-0.1,4.39,1.98,5.44
					l319.54,161.73c2.08,1.05,4.57,0.33,5.56-1.62l14.31-28.27C804.43,736.49,803.54,734.05,801.46,733z"/>
			</g>
		</g>
	</g>
	<g id="shadow_68_2_">
		<g id="shadow_68_1_" class="st4">
			<g>
				
					<rect x="632.73" y="484.16" transform="matrix(0.4506 -0.8927 0.8927 0.4506 -257.5367 945.3698)" class="st2" width="13.06" height="395.49"/>
			</g>
			<g>
				<path class="st2" d="M465.71,587.12l352.89,178.11l-5.79,11.48L459.92,598.6L465.71,587.12 M465.62,586.84l-5.98,11.84
					L812.9,776.98l5.98-11.84L465.62,586.84L465.62,586.84z"/>
			</g>
		</g>
	</g>
	<g id="Layer_30">
		<g id="Rounded_Rectangle_8">
			<g>
				<path class="st0" d="M836.78,759.33l-13.36-9.79c-3.21-2.35-7.23-2.05-8.99,0.67l-19.74,30.57c-1.76,2.72-0.58,6.84,2.62,9.19
					l13.36,9.79c3.21,2.35,7.23,2.05,8.99-0.67l19.74-30.57C841.17,765.8,839.99,761.68,836.78,759.33z"/>
			</g>
		</g>
	</g>
	<g id="shadow_72_1_">
		<g id="shadow_72" class="st5">
			<g>
				
					<rect x="793.22" y="767.22" transform="matrix(0.5796 -0.8149 0.8149 0.5796 -286.4515 985.1593)" class="st2" width="36.79" height="6"/>
			</g>
			<g>
				<path class="st2" d="M819.86,753.63l4.72,3.36l-21.21,29.82l-4.72-3.36L819.86,753.63 M819.81,753.35l-21.44,30.15l5.05,3.59
					l21.44-30.15L819.81,753.35L819.81,753.35z"/>
			</g>
		</g>
	</g>
	<g id="Layer_32">
		<g id="Rounded_Rectangle_7">
			<g>
				<path class="st0" d="M820.39,740.02l-12.97-8.94c-2.98-2.06-7.1-1.26-9.2,1.78l-45.55,66.06c-2.1,3.04-1.38,7.17,1.61,9.23
					l12.97,8.94c2.99,2.06,7.1,1.26,9.2-1.78l45.55-66.06C824.09,746.21,823.37,742.07,820.39,740.02z"/>
			</g>
		</g>
	</g>
	<g id="shadow_66_1_">
		<g id="shadow_66" class="st6">
			<g>
				
					<rect x="742" y="766.62" transform="matrix(0.5692 -0.8222 0.8222 0.5692 -296.2517 975.9965)" class="st2" width="82.35" height="8.12"/>
			</g>
			<g>
				<path class="st2" d="M803.3,734.66l6.51,4.51l-46.75,67.54l-6.51-4.51L803.3,734.66 M803.25,734.38l-46.99,67.88l6.85,4.74
					l46.99-67.88L803.25,734.38L803.25,734.38z"/>
			</g>
		</g>
	</g>
	<g id="Layer_34">
		<g id="Rounded_Rectangle_5">
			<g>
				<path class="st0" d="M374.11,708.25l-40.01-27.46c-2.01-1.38-4.58-1.12-5.75,0.58L156.58,931.63c-1.17,1.7-0.48,4.19,1.53,5.57
					l40.02,27.46c2.01,1.38,4.58,1.12,5.75-0.58l171.77-250.26C376.8,712.12,376.12,709.63,374.11,708.25z"/>
			</g>
		</g>
	</g>
	<g id="shadow_64_1_">
		<g id="shadow_64" class="st7">
			<g>
				
					<rect x="214.58" y="752.95" transform="matrix(0.5736 -0.8191 0.8191 0.5736 -500.4287 562.5558)" class="st2" width="151.15" height="18.03"/>
			</g>
			<g>
				<path class="st2" d="M326.15,695.03l14.6,10.22L254.16,828.9l-14.6-10.22L326.15,695.03 M326.1,694.75l-86.82,123.98
					l14.93,10.46l86.82-123.98L326.1,694.75L326.1,694.75z"/>
			</g>
		</g>
	</g>
	<g id="Layer_22">
		<g id="Rounded_Rectangle_9">
			<g>
				<path class="st0" d="M312.76,825.78l-65.41-44.11c-2.49-1.68-5.86-1.04-7.53,1.44l-81.29,120.54c-1.67,2.47-1,5.84,1.49,7.52
					l65.41,44.11c2.49,1.68,5.86,1.04,7.53-1.44l81.29-120.54C315.91,830.83,315.25,827.46,312.76,825.78z"/>
			</g>
		</g>
	</g>
	<g id="shadow_68_3_">
		<g id="shadow_68" class="st4">
			<g>
				
					<rect x="138.87" y="842.27" transform="matrix(0.5652 -0.825 0.825 0.5652 -610.7857 545.1362)" class="st2" width="145.74" height="19.43"/>
			</g>
			<g>
				<path class="st2" d="M244.94,786.52l15.86,10.86l-82.26,120.06l-15.86-10.86L244.94,786.52 M244.89,786.23l-82.49,120.4
					l16.19,11.09l82.49-120.4L244.89,786.23L244.89,786.23z"/>
			</g>
		</g>
	</g>
	<g id="Layer_24">
		<g id="Rounded_Rectangle_2">
			<g>
				<path class="st0" d="M240.08,927.47h-69.81c-3.24,0-5.87,2.63-5.87,5.87v44c0,3.24,2.63,5.87,5.87,5.87h69.81
					c3.24,0,5.87-2.63,5.87-5.87v-44C245.95,930.1,243.32,927.47,240.08,927.47z"/>
			</g>
		</g>
	</g>
	<g id="shadow_70_2_">
		<g id="shadow_70_1_" class="st8">
			<g>
				<rect x="169.79" y="944.59" class="st2" width="22.68" height="32.65"/>
			</g>
			<g>
				<path class="st2" d="M192.36,944.69v32.44h-22.47v-32.44H192.36 M192.56,944.49h-22.88v32.85h22.88V944.49L192.56,944.49z"/>
			</g>
		</g>
	</g>
	<g id="Layer_26">
		<g id="Rounded_Rectangle_4">
			<g>
				<path class="st0" d="M826.73,835.58h-52.8c-3.24,0-5.87,2.92-5.87,6.52v89.99c0,3.6,2.63,6.52,5.87,6.52h52.8
					c3.24,0,5.87-2.92,5.87-6.52v-89.99C832.6,838.5,829.97,835.58,826.73,835.58z"/>
			</g>
		</g>
	</g>
	<g id="shadow_70_3_">
		<g id="shadow_70" class="st8">
			<g>
				<rect x="774.04" y="851.9" class="st2" width="18.57" height="93.66"/>
			</g>
			<g>
				<path class="st2" d="M792.5,852v93.46h-18.37V852H792.5 M792.71,851.79h-18.77v93.86h18.77V851.79L792.71,851.79z"/>
			</g>
		</g>
	</g>
	<g id="Layer_17">
		<g id="Rounded_Rectangle_2_copy">
			<g>
				<path class="st0" d="M834.95,928.06h-69.81c-3.24,0-5.87,2.63-5.87,5.87v44c0,3.24,2.63,5.87,5.87,5.87h69.81
					c3.24,0,5.87-2.63,5.87-5.87v-44C840.81,930.69,838.19,928.06,834.95,928.06z"/>
			</g>
		</g>
	</g>
	<g id="shadow_73_1_">
		<g id="shadow_73" class="st9">
			<g>
				<rect x="764.65" y="934.03" class="st2" width="16.81" height="44.38"/>
			</g>
			<g>
				<path class="st2" d="M781.36,934.13v44.18h-16.61v-44.18H781.36 M781.56,933.93h-17.01v44.59h17.01V933.93L781.56,933.93z"/>
			</g>
		</g>
	</g>
	<g id="Layer_19">
		<g id="Rounded_Rectangle_3">
			<g>
				<path class="st0" d="M844.9,838.33l-5.95-35.06c-0.43-2.55-3.21-4.2-6.21-3.69L150.63,915.34c-3,0.51-5.08,2.99-4.64,5.53
					l5.95,35.06c0.43,2.55,3.21,4.2,6.21,3.69l682.11-115.76C843.25,843.36,845.33,840.88,844.9,838.33z"/>
			</g>
		</g>
	</g>
	<g id="Layer_20">
		<g id="Ellipse_2">
			<g>
				
					<ellipse transform="matrix(0.7071 -0.7071 0.7071 0.7071 -290.6147 434.6925)" class="st10" cx="379.41" cy="568.15" rx="121.73" ry="121.73"/>
			</g>
		</g>
	</g>
</g>
<g id="Layer_37">
	<g id="Layer_40">
		<g id="Layer_10">
			<g id="Rounded_Rectangle_10">
				<g>
					<path class="st0" d="M507.01,662.89H278.22c-3.24,0-5.87,2.63-5.87,5.87v46.35c0,3.24,2.63,5.87,5.87,5.87h228.79
						c3.24,0,5.87-2.63,5.87-5.87v-46.35C512.88,665.52,510.25,662.89,507.01,662.89z"/>
				</g>
			</g>
		</g>
		<g id="shadow_71_1_">
			<g id="shadow_71" class="st11">
				<g>
					<path class="st2" d="M278.61,715.59l0-28.23c0.4,1.3,1.39,2.24,3.34,4.11c1.7,1.62,4.02,3.84,7.33,7.57
						c8.95,9.23,13.4,13.55,22.32,16.55H278.61z"/>
				</g>
				<g>
					<path class="st2" d="M278.71,687.91c0.5,1.08,1.47,2,3.17,3.63c1.69,1.62,4.02,3.84,7.33,7.57
						c8.77,9.04,13.22,13.37,21.78,16.37h-32.28C278.72,706.09,278.72,696.69,278.71,687.91 M278.51,684.6
						c-0.04,0.64-0.04,1.18,0,1.66C278.51,685.71,278.51,685.15,278.51,684.6L278.51,684.6z M278.51,686.26c0,9.32,0,19.37,0,29.43
						h33.73c-9.09-2.93-13.49-7.04-22.88-16.72C281.17,689.76,278.79,689.51,278.51,686.26L278.51,686.26z"/>
				</g>
			</g>
		</g>
	</g>
	<g id="Layer_14">
		<g id="Rounded_Rectangle_11">
			<g>
				<path class="st12" d="M527.54,637.08H253.58c-3.24,0-5.87,2.63-5.87,5.87v39.89c0,3.24,2.63,5.87,5.87,5.87h273.97
					c3.24,0,5.87-2.63,5.87-5.87v-39.89C533.41,639.71,530.78,637.08,527.54,637.08z"/>
			</g>
		</g>
	</g>
	<g id="shadow_62_1_">
		<g id="shadow_62" class="st13">
			<g>
				<path class="st14" d="M283.78,683.32c-16.71-0.29-23.83-0.29-30.68-0.29v-41.15c6.81,0,13.82,0,16.51,0.28
					C269.33,657.87,270.23,672.84,283.78,683.32z"/>
			</g>
			<g>
				<path class="st14" d="M253.19,641.98c6.7,0,13.57,0,16.31,0.27c-0.27,15.62,0.64,30.49,13.97,40.96
					c-16.41-0.28-23.5-0.28-30.28-0.28V641.98 M252.99,641.77v41.36c7.04,0,14.08,0,31.09,0.3c-13.49-10.27-14.67-24.93-14.37-41.36
					C267.07,641.77,260.03,641.77,252.99,641.77L252.99,641.77z"/>
			</g>
		</g>
	</g>
	<g id="Layer_16">
		<g id="Rounded_Rectangle_18">
			<g>
				<path class="st10" d="M567.43,129.63H221.9c-3.24,0-5.87,2.63-5.87,5.87v21.12c0,3.24,2.63,5.87,5.87,5.87h345.54
					c3.24,0,5.87-2.63,5.87-5.87v-21.12C573.3,132.25,570.67,129.63,567.43,129.63z"/>
			</g>
		</g>
	</g>
	<g id="Layer_6">
		<g id="Rounded_Rectangle_19">
			<g>
				<path class="st10" d="M521.09,25.2H265.9c-3.24,0-5.87,2.63-5.87,5.87v114.98c0,3.24,2.63,5.87,5.87,5.87h255.19
					c3.24,0,5.87-2.63,5.87-5.87V31.07C526.96,27.83,524.33,25.2,521.09,25.2z"/>
			</g>
		</g>
	</g>
	<g id="Layer_7">
		<g id="Rounded_Rectangle_20" class="st15">
			<g>
				<path d="M273.52,104.89c-3.18,0-5.76-2.59-5.76-5.76V38.11c0-3.18,2.59-5.76,5.76-5.76h14.08c3.18,0,5.76,2.59,5.76,5.76v61.01
					c0,3.18-2.59,5.76-5.76,5.76H273.52z"/>
			</g>
			<g>
				<path d="M287.6,32.45c3.12,0,5.66,2.54,5.66,5.66v61.01c0,3.12-2.54,5.66-5.66,5.66h-14.08c-3.12,0-5.66-2.54-5.66-5.66V38.11
					c0-3.12,2.54-5.66,5.66-5.66H287.6 M287.6,32.24h-14.08c-3.24,0-5.87,2.63-5.87,5.87v61.01c0,3.24,2.63,5.87,5.87,5.87h14.08
					c3.24,0,5.87-2.63,5.87-5.87V38.11C293.47,34.87,290.84,32.24,287.6,32.24L287.6,32.24z"/>
			</g>
		</g>
	</g>
	<g id="Layer_8">
		<g id="Rounded_Rectangle_12">
			<g>
				<path class="st10" d="M554.53,75.66H235.39c-3.24,0-5.87,2.63-5.87,5.87v499.24c0,3.24,2.63,5.87,5.87,5.87h319.14
					c3.24,0,5.87-2.63,5.87-5.87V81.52C560.39,78.28,557.77,75.66,554.53,75.66z"/>
			</g>
		</g>
	</g>
	<g id="Layer_9">
		<g id="Rounded_Rectangle_17" class="st15">
			<g>
				<path d="M437.88,582.83c-116.95-0.92-155.84-0.99-191.33-1c-3.19,0-5.78-2.59-5.78-5.76V92.08c0-1.54,0.6-2.99,1.69-4.08
					c1.09-1.09,2.53-1.69,4.07-1.69c27.06,0,64.12,0.01,65.69,1.47c0.05,0.11,0.05,1.13,0.05,2.31c0,1.17,0,2.67,0.04,4.29
					c2.42,91.33,5.92,173.34,24.47,252.18c21.11,89.74,58.75,163.21,118.44,231.23c0.47,0.51,0.6,1.01,0.39,1.49
					c-0.92,2.09-7.96,3.55-17.11,3.55C438.5,582.83,437.88,582.83,437.88,582.83z"/>
			</g>
			<g>
				<path d="M246.53,86.22v0.2c26.86,0,63.58,0.01,65.59,1.42c0.05,0.23,0.04,1.21,0.04,2.26c0,1.19-0.01,2.67,0.04,4.29
					c2.41,91.33,5.92,173.35,24.48,252.2c10.09,42.87,23.81,81.47,41.95,118c20.08,40.44,45.11,77.49,76.51,113.28
					c0.44,0.49,0.56,0.94,0.37,1.38c-0.89,2.02-8.05,3.49-17.02,3.49l-0.62,0c-116.93-0.92-155.83-0.99-191.33-1
					c-3.13,0-5.68-2.54-5.68-5.66V92.08c0-1.51,0.59-2.93,1.66-4c1.07-1.07,2.49-1.66,4-1.66V86.22 M246.53,86.22
					c-3.23,0-5.86,2.63-5.86,5.87v483.99c0,3.24,2.62,5.87,5.88,5.87c33.32,0,71.23,0.06,191.33,1c0.21,0,0.42,0,0.62,0
					c11.5,0,19.45-2.29,16.8-5.2C325.38,429.68,317.06,270.39,312.41,94.38c-0.1-3.54,0.03-6.54-0.12-6.67
					C310.77,86.3,279.48,86.22,246.53,86.22L246.53,86.22z"/>
			</g>
		</g>
	</g>
	<g id="highlight_36_2_">
		<g id="highlight_36" class="st16">
			<g>
				<path class="st12" d="M517.41,52.07c-0.36-0.42-0.41-1.46-0.48-2.76c-0.06-1.23-0.14-2.77-0.47-4.4
					c-0.74-1.85-2.45-6.15-4.73-7.57c-2.74-1.42-6.51-1.79-9.84-2.11c-1.51-0.15-2.94-0.29-4.13-0.51
					c-1.21-0.12-1.21-0.37-1.21-0.38c0.01-0.24,1.16-0.75,3.24-0.82l13.82,0c1.57,0,3,0.55,3.96,1.51c0.69,0.7,1.06,1.53,1.06,2.41
					V47.9C518.5,49.82,517.67,51.86,517.41,52.07z"/>
			</g>
			<g>
				<path class="st12" d="M513.63,33.42v0.2c1.52,0,2.94,0.54,3.88,1.48c0.67,0.68,1.03,1.48,1.03,2.34l0,10.45
					c-0.12,1.7-0.8,3.56-1.12,4.02c-0.27-0.4-0.32-1.39-0.38-2.6c-0.06-1.24-0.14-2.77-0.49-4.45c-0.73-1.85-2.45-6.17-4.78-7.61
					c-2.75-1.43-6.53-1.8-9.87-2.12c-1.51-0.15-2.93-0.28-4.13-0.51c-0.94-0.1-1.1-0.27-1.11-0.27c0,0,0,0,0,0
					c0.08-0.21,1.26-0.66,3.14-0.72h13.83L513.63,33.42 M513.63,33.42c0,0-0.01,0-0.01,0h-13.83c-2.9,0.09-4.71,1.13-2.05,1.39
					c3.8,0.72,9.98,0.55,13.93,2.61c2.23,1.39,3.9,5.52,4.69,7.5c0.71,3.48,0.26,6.48,0.98,7.21c0.01,0.04,0.04,0.05,0.06,0.05
					c0.29,0,1.19-2.31,1.34-4.28V37.44C518.75,35.22,516.46,33.42,513.63,33.42L513.63,33.42z"/>
			</g>
		</g>
	</g>
	<g id="highlight_30" class="st17">
		<path class="st12" d="M497.77,87.98l39.87,0c2.85,0,5.16,2.31,5.16,5.16v344.7c0,1.68-2.49,1.82-2.61,0.14
			c-8.82-130-19.4-276.64-47.12-343.11C491.7,91.58,494.21,87.98,497.77,87.98z"/>
	</g>
	<g id="Layer_12">
		<g id="Rounded_Rectangle_14">
			<g>
				<path class="st18" d="M484.72,476.34H277.04c-3.24,0-5.87,2.7-5.87,6.02c0.03,48.56,0.81,97.17,20.48,146.8
					c1.37,3.4,4.35,6.11,6.6,6.06c48.58-1.13,116.64-1.14,164.33-0.71c2.21,0.02,5.21-2.68,6.64-6.04
					c20.51-48.97,21.33-97.55,21.36-146.11C490.58,479.03,487.96,476.34,484.72,476.34z"/>
			</g>
		</g>
		<g id="Rounded_Rectangle_16" class="st19">
			<g>
				<path class="st2" d="M304.81,627.59c-3.65,0-5.77-0.28-6.88-0.9c-0.66-0.4-1.26-2.14-1.95-4.15c-0.3-0.87-0.61-1.79-0.96-2.69
					c-15.54-43.56-17.06-92.63-16.65-130.52c0.03-2.99,3.01-5.79,6.51-6.12c6.61-0.58,13.02-0.91,18.05-0.91
					c5.02,0,8.33,0.32,9.31,0.9c0.32,0.18,0.31,1.85,0.3,3.62c-0.01,0.96-0.01,2.04,0.02,3.15c2.03,77.08,22.03,108.66,43.35,131.31
					c0.74,0.73,0.98,1.42,0.73,2.05c-0.64,1.58-4.42,2.64-9.62,2.71c-11.59,0.1-21.25,0.62-29.01,1.03
					C312.51,627.36,308.17,627.59,304.81,627.59C304.81,627.59,304.81,627.59,304.81,627.59z"/>
			</g>
			<g>
				<path class="st2" d="M302.93,482.4c5,0,8.29,0.31,9.26,0.88c0.27,0.15,0.25,2.03,0.24,3.53c-0.01,0.96-0.01,2.04,0.02,3.15
					c0.51,19.44,1.96,44.83,8.66,68.89c6.82,24.48,18.18,44.92,34.72,62.49c0.7,0.7,0.94,1.35,0.71,1.93
					c-0.62,1.54-4.37,2.58-9.53,2.64c-11.59,0.1-21.26,0.62-29.02,1.03c-5.49,0.29-9.83,0.52-13.19,0.52
					c-3.63,0-5.74-0.27-6.83-0.88c-0.64-0.38-1.25-2.19-1.91-4.1c-0.3-0.88-0.61-1.79-0.96-2.68
					c-15.54-43.55-17.06-92.61-16.64-130.49c0.03-2.94,2.97-5.7,6.42-6.02C291.5,482.72,297.9,482.4,302.93,482.4 M302.93,482.2
					c-4.89,0-11.22,0.3-18.06,0.91c-3.54,0.33-6.58,3.15-6.61,6.22c-0.46,42.15,1.95,89.36,16.65,130.56
					c1.17,2.99,1.96,6.29,2.96,6.89c1.19,0.67,3.52,0.91,6.93,0.91c8.15,0,22.47-1.38,42.21-1.55c7.39-0.09,11.77-2.14,8.97-4.92
					c-35.91-38.15-42.09-84.51-43.32-131.24c-0.1-3.43,0.18-6.55-0.37-6.86C311.26,482.5,307.82,482.2,302.93,482.2L302.93,482.2z"
					/>
			</g>
		</g>
	</g>
	<g id="Layer_41">
		<g id="Neutral_mouth">
			<g>
				<polygon class="st20" points="368.02,601.83 428.64,603.14 419.12,608.76 375.37,611.11 				"/>
			</g>
			<g>
				<path d="M368.13,601.89l60.31,1.3l-9.33,5.5l-43.72,2.36L368.13,601.89 M367.9,601.77l7.44,9.4l43.8-2.36l9.69-5.72
					L367.9,601.77L367.9,601.77z"/>
			</g>
		</g>
		<g id="right_normal">
			<g>
				<ellipse class="st12" cx="348.64" cy="538.78" rx="26.37" ry="26.11"/>
			</g>
		</g>
		<g id="Right_Pupil">
			<g>
				<path d="M349.38,545.75c-4.46,0-8.09-3.79-8.09-8.44c0-4.66,3.63-8.44,8.09-8.44s8.09,3.79,8.09,8.44
					C357.47,541.96,353.84,545.75,349.38,545.75z"/>
			</g>
			<g>
				<path d="M349.38,528.92c4.43,0,8.03,3.76,8.03,8.39s-3.6,8.39-8.03,8.39c-4.43,0-8.03-3.76-8.03-8.39
					S344.95,528.92,349.38,528.92 M349.38,528.81c-4.5,0-8.14,3.81-8.14,8.5c0,4.69,3.65,8.5,8.14,8.5s8.14-3.81,8.14-8.5
					C357.52,532.61,353.88,528.81,349.38,528.81L349.38,528.81z"/>
			</g>
		</g>
		<g id="left_normal">
			<g>
				<ellipse class="st12" cx="452.86" cy="538.78" rx="26.66" ry="26.74"/>
			</g>
		</g>
		<g id="Left_Pupil">
			<g>
				<path d="M453.6,545.95c-4.52,0-8.19-3.89-8.19-8.66s3.68-8.66,8.19-8.66s8.19,3.88,8.19,8.66S458.12,545.95,453.6,545.95z"/>
			</g>
			<g>
				<path d="M453.6,528.68c4.49,0,8.14,3.86,8.14,8.61s-3.65,8.61-8.14,8.61s-8.14-3.86-8.14-8.61S449.12,528.68,453.6,528.68
					 M453.6,528.57c-4.56,0-8.25,3.9-8.25,8.72s3.69,8.72,8.25,8.72s8.25-3.9,8.25-8.72S458.16,528.57,453.6,528.57L453.6,528.57z"
					/>
			</g>
		</g>
	</g>
</g>
</svg>
