<svg xmlns="http://www.w3.org/2000/svg" viewBox="0 0 1000 1000"><defs><style>.cls-1{fill:#1b3ecf;}.cls-11,.cls-2,.cls-3,.cls-4,.cls-5{fill:#1b2468;}.cls-2{opacity:0.74;}.cls-3{opacity:0.68;}.cls-4{opacity:0.72;}.cls-5{opacity:0.73;}.cls-6{fill:#56575d;}.cls-7,.cls-9{fill:#fff;}.cls-8{opacity:0.5;}.cls-9{opacity:0.36;}.cls-10{fill:#5d70fe;}.cls-11{opacity:0.38;}.cls-12{fill:#1f2437;}</style></defs><title>04m flat with face</title><g id="Layer_39" data-name="Layer 39"><path class="cls-1" d="M762.84,859.54v80.85c0,3.23-2.36,5.86-5.27,5.86H710.13c-2.91,0-5.27-2.63-5.27-5.86V859.54c0-3.24,2.36-5.86,5.27-5.86h11.08a24.68,24.68,0,0,1,.54-33.61,5.21,5.21,0,0,1-2.66.74H284.28a5.27,5.27,0,0,1-5.27-5.27V799.73a5.27,5.27,0,0,1,5.27-5.27H524.46L301.77,766.92a5.19,5.19,0,0,1-4.41-5.85l1.94-15.7a5.19,5.19,0,0,1,5.71-4.6l417.27,51.6a5.18,5.18,0,0,1,4.41,5.85l-1.94,15.69a5.37,5.37,0,0,1-.39,1.4v.23a5.21,5.21,0,0,1-1.06,3.14,18.39,18.39,0,0,1,11.6-4.19c11.06,0,20,10.14,20,22.66a24,24,0,0,1-6.34,16.53h9C760.48,853.68,762.84,856.3,762.84,859.54Z"/><path class="cls-2" d="M320.51,798.86H304v17.28c5.43,0,11.2,0,30.51.26-8.63-3.71-13-6.85-14.39-10.42-.85-2.08-.71-4.35.43-7.12M331.89,744v22.91l25.58,2.41c-9.88-4.11-9.3-12.19-8.82-18.21L331.89,744m2.58,72.42c-19.31-.25-25.08-.26-30.51-.26V798.86h16.55c-1.14,2.77-1.28,5-.43,7.12,1.44,3.57,5.76,6.71,14.39,10.42m-13.69-17.73h-17v17.66c5.67,0,11.34,0,31.62.26-14.62-6.15-17.66-10.8-14.62-17.92m36.69-29.37-25.58-2.41V744l16.76,7.11c-.48,6-1.06,14.1,8.82,18.21m-25.76-25.6v23.35l27.07,2.56c-11-3.88-10.47-12.05-9.94-18.63l-17.13-7.28"/><path class="cls-1" d="M734.86,761.52,447.79,616.22a3.69,3.69,0,0,0-5,1.46l-12.85,25.4a3.68,3.68,0,0,0,1.78,4.89l287.07,145.3a3.7,3.7,0,0,0,5-1.46l12.85-25.4A3.68,3.68,0,0,0,734.86,761.52ZM350.93,739.28,315,714.61c-1.81-1.24-4.12-1-5.17.52L155.5,940c-1.05,1.52-.43,3.76,1.37,5l35.95,24.68c1.8,1.24,4.12,1,5.16-.52L352.3,744.29C353.35,742.76,352.73,740.52,350.93,739.28Z"/><path class="cls-3" d="M433.23,630.46l317,160-5.2,10.31-317-160,5.21-10.31M745.06,800.78l5.2-10.31-317-160L428,640.77l317,160M433.14,630.21,750.51,790.39,745.14,801,427.77,640.85l5.37-10.64"/><path class="cls-1" d="M769,793.43l-17.73,27.46c-1.58,2.45-5.19,2.72-8.08.61l-12-8.8a8.21,8.21,0,0,1-1.8-1.83l-17,24.6a6,6,0,0,1-8.26,1.6l-11.66-8a6,6,0,0,1-1.44-8.29l40.92-59.36a6,6,0,0,1,8.27-1.59l11.65,8a6,6,0,0,1,1.69,7.91,8.93,8.93,0,0,1,1,.65l12,8.8C769.48,787.29,770.53,791,769,793.43Z"/><path class="cls-4" d="M751.39,780.05l-19,26.79,4.24,3,19-26.79-4.24-3m-14.87-17-42,60.68,5.85,4,42-60.68-5.84-4m-428.68-35.6L230.05,838.49l13.11,9.19L321,736.6l-13.11-9.19m428.74,82.45-4.24-3,19-26.79,4.24,3-19,26.79m14.77-30.06-19.27,27.08,4.54,3.23L755.89,783l-4.54-3.23m-51,47.94-5.85-4,42-60.68,5.84,4-42,60.68m36.11-65-42.21,61,6.15,4.25,42.21-61-6.15-4.25M243.16,847.68l-13.11-9.19,77.79-111.08L321,736.6,243.16,847.68m64.63-120.52-78,111.38,13.42,9.39,78-111.38-13.42-9.39"/><path class="cls-1" d="M297.15,851.63l-61.36,91V981a5.27,5.27,0,0,1-5.27,5.27H167.8a5.27,5.27,0,0,1-5.27-5.27V941.5a5.27,5.27,0,0,1,5.27-5.27h12.5l-21.71-14.64a4.87,4.87,0,0,1-1.34-6.76l73-108.29a4.88,4.88,0,0,1,6.77-1.29l58.76,39.62A4.88,4.88,0,0,1,297.15,851.63Z"/><path class="cls-3" d="M187.64,951.7H167.45v29.15h20.19V951.7m539.17-83.27h-16.5v84h16.5v-84M234.88,809.6,161,917.47l14.25,9.76,73.9-107.87-14.25-9.76M167.45,980.85V951.7h20.19v29.15H167.45m20.38-29.33H167.27V981h20.56V951.52m522.48.87v-84h16.5v84h-16.5M727,868.24H710.13v84.33H727V868.24m-551.77,59L161,917.47l73.9-107.87,14.25,9.76-73.9,107.87m59.61-117.88L160.73,917.51l14.55,10,74.1-108.17-14.54-10"/><path class="cls-1" d="M770.21,942v39.53a5.26,5.26,0,0,1-5.26,5.27H702.23a5.27,5.27,0,0,1-5.27-5.27V942a5.27,5.27,0,0,1,5.27-5.27H765A5.26,5.26,0,0,1,770.21,942Z"/><path class="cls-5" d="M716.8,942.21V981.9H701.88V942.21H716.8M701.88,981.9H716.8V942.21H701.88V981.9M717,942v40.06H701.7V942H717"/><path class="cls-1" d="M769.71,861.12l-612.8,104c-2.7.46-5.19-1-5.58-3.31L146,930.31c-.39-2.29,1.48-4.52,4.17-5L763,821.33c2.69-.46,5.19,1,5.58,3.32l5.34,31.5C774.27,858.44,772.41,860.66,769.71,861.12Z"/><path class="cls-6" d="M524.52,591.09A137.57,137.57,0,1,1,387,453.52,137.57,137.57,0,0,1,524.52,591.09Z"/></g><g id="Layer_37" data-name="Layer 37"><path class="cls-1" d="M524.52,706.71v48.16a6.1,6.1,0,0,1-6.1,6.1H280.66a6.1,6.1,0,0,1-6.1-6.1V706.71a6.09,6.09,0,0,1,6.1-6.09H518.42A6.09,6.09,0,0,1,524.52,706.71Z"/><path class="cls-7" d="M545.86,679.89v41.45a6.1,6.1,0,0,1-6.1,6.1H255.05a6.1,6.1,0,0,1-6.1-6.1V679.89a6.1,6.1,0,0,1,6.1-6.1H539.76A6.1,6.1,0,0,1,545.86,679.89Z"/><path class="cls-6" d="M539.15,44V163.5a6.1,6.1,0,0,1-6.09,6.1H267.85a6.1,6.1,0,0,1-6.09-6.1V44a6.1,6.1,0,0,1,6.09-6.1H533.06A6.1,6.1,0,0,1,539.15,44Z"/><path class="cls-8" d="M254.44,678.67v43c7.32,0,14.63,0,32.31.3-14-10.67-15.24-25.91-14.94-43-2.74-.3-10.05-.3-17.37-.3m36-633.44H275.78a6.1,6.1,0,0,0-6.1,6.09v63.41a6.1,6.1,0,0,0,6.1,6.09h14.63a6.1,6.1,0,0,0,6.1-6.09V51.32a6.1,6.1,0,0,0-6.1-6.09"/><path class="cls-6" d="M587.32,152.53v21.95a6.1,6.1,0,0,1-6.1,6.09H573.9V615.26a6.1,6.1,0,0,1-6.09,6.1H236.15a6.1,6.1,0,0,1-6.1-6.1V180.57h-7.92a6.1,6.1,0,0,1-6.1-6.09V152.53a6.1,6.1,0,0,1,6.1-6.1h7.92v-50a6.1,6.1,0,0,1,6.1-6.1H567.81a6.1,6.1,0,0,1,6.09,6.1v50h7.32A6.1,6.1,0,0,1,587.32,152.53Z"/><path class="cls-8" d="M281.35,728.44c0,10.15-.39,16-.39,27H316c-9.45-3-13.66-7.68-23.78-17.37-4.49-4.3-10.89-8.35-10.89-9.67M247.73,101.32a6.09,6.09,0,0,0-6.09,6.09v503a6.09,6.09,0,0,0,6.11,6.1c34.63,0,74,.06,198.83,1h.64c12,0,20.22-2.38,17.47-5.41C329.67,458.26,321,292.71,316.19,109.8c-.1-3.68,0-6.8-.12-6.93-1.59-1.47-34.1-1.55-68.34-1.55"/><path class="cls-9" d="M525.31,46.45c2.94,0,5.31,1.87,5.31,4.18V61.5c-.15,2-1.09,4.45-1.39,4.45,0,0-.05,0-.07-.06-.74-.76-.28-3.87-1-7.49-.82-2-2.55-6.36-4.87-7.8-4.11-2.13-10.53-2-14.48-2.71-2.76-.28-.88-1.35,2.13-1.44h14.38m24.94,56.69H508.82a5.22,5.22,0,0,0-4.88,7.16c28.8,69.08,39.8,221.47,49,356.57a1.27,1.27,0,0,0,1.31,1.25,1.35,1.35,0,0,0,1.39-1.39V108.5a5.36,5.36,0,0,0-5.36-5.36"/><path class="cls-10" d="M519,481.86c0,58.13-1,116.29-25.57,174.92-1.7,4-5.3,7.25-7.94,7.22-57.09-.51-138.57-.49-196.73.86-2.69.06-6.27-3.19-7.9-7.26C257.34,598.18,256.41,540,256.37,481.86a7.12,7.12,0,0,1,7-7.21H512A7.11,7.11,0,0,1,519,481.86Z"/><path class="cls-11" d="M307.28,517.22c1.59,21.7,4.78,43.11,11.36,63.67-5.3-17.17-9.3-37.95-11.36-63.67m-12.89-35.31c-6,0-13.69.38-21.6,1.08-4.13.39-7.65,3.69-7.69,7.21-.33,30.39.67,55.35,3.16,78.55,3.17,29.53,8.65,54.93,16.77,77.67.41,1.07.79,2.16,1.15,3.21.78,2.29,1.52,4.45,2.28,4.91,1.3.73,3.82,1.05,8.17,1.05,4,0,9.22-.27,15.79-.62,9.3-.5,20.86-1.11,34.74-1.23,6.18-.08,10.66-1.32,11.41-3.17.28-.7,0-1.48-.84-2.31q-6.08-6.45-11.37-13.33A155.78,155.78,0,0,1,326.56,602a191.65,191.65,0,0,1-10.4-28.6c-8-28.8-9.76-59.2-10.37-82.47,0-1.33,0-2.63,0-3.77,0-1.81,0-4.06-.3-4.24-1.16-.68-5.09-1-11.08-1m2.24,173.68c-4.35,0-6.87-.32-8.17-1.05-.76-.46-1.5-2.62-2.28-4.91-.36-1-.74-2.14-1.15-3.21-8.12-22.74-13.6-48.14-16.77-77.67-2.49-23.2-3.49-48.16-3.16-78.55,0-3.52,3.56-6.82,7.69-7.21,7.91-.7,15.58-1.08,21.6-1.08s9.92.37,11.08,1c.32.18.31,2.43.3,4.24,0,1.14,0,2.44,0,3.77.61,23.27,2.35,53.67,10.37,82.47a191.65,191.65,0,0,0,10.4,28.6,169.53,169.53,0,0,0,19.8,32.89q5.31,6.89,11.37,13.33c.84.83,1.12,1.61.84,2.31-.75,1.85-5.23,3.09-11.41,3.17-13.88.12-25.44.73-34.74,1.23-6.57.35-11.76.62-15.79.62m-2.24-173.93c-5.85,0-13.44.36-21.62,1.09-4.24.39-7.87,3.77-7.91,7.45-.55,50.46,2.33,107,19.94,156.3,1.4,3.58,2.34,7.53,3.54,8.25,1.43.8,4.22,1.09,8.29,1.09,9.76,0,26.9-1.65,50.53-1.86,8.85-.11,14.09-2.56,10.74-5.89a173.11,173.11,0,0,1-39.26-67.2c-6.58-20.56-9.77-42-11.36-63.67-.64-8.72-1-17.48-1.25-26.25-.12-4.11.22-7.85-.44-8.22-1.23-.72-5.35-1.09-11.2-1.09"/></g><g id="Layer_4" data-name="Layer 4"><g id="Neutral_mouth" data-name="Neutral mouth"><polygon class="cls-12" points="367.65 626.91 446.56 628.61 434.17 635.92 377.22 638.99 367.65 626.91"/><path d="M367.8,627l78.51,1.7-12.15,7.16-56.91,3.07L367.8,627m-.31-.15,9.7,12.23,57-3.08,12.61-7.44-79.33-1.71Z"/></g><g id="right_normal" data-name="right normal"><ellipse class="cls-7" cx="342.42" cy="544.84" rx="34.32" ry="33.98"/></g><g id="Right_Pupil" data-name="Right Pupil"><path d="M342.24,556.3a12.2,12.2,0,1,1,11.67-12.18A12,12,0,0,1,342.24,556.3Z"/><path d="M342.24,532a12.12,12.12,0,1,1-11.59,12.11A11.87,11.87,0,0,1,342.24,532m0-.16A12.28,12.28,0,1,0,354,544.12a12,12,0,0,0-11.75-12.27Z"/></g><g id="left_normal" data-name="left normal"><ellipse class="cls-7" cx="478.09" cy="544.84" rx="34.7" ry="34.81"/></g><g id="Left_Pupil" data-name="Left Pupil"><path d="M478,556.3c-6.43,0-11.67-5.53-11.67-12.34s5.24-12.33,11.67-12.33,11.68,5.53,11.68,12.33S484.48,556.3,478,556.3Z"/><path d="M478,531.71c6.4,0,11.6,5.5,11.6,12.25s-5.2,12.26-11.6,12.26-11.59-5.5-11.59-12.26,5.2-12.25,11.59-12.25m0-.16c-6.49,0-11.75,5.56-11.75,12.41s5.26,12.42,11.75,12.42S489.8,550.82,489.8,544s-5.27-12.41-11.76-12.41Z"/></g></g></svg>