<svg xmlns="http://www.w3.org/2000/svg" viewBox="0 0 1000 1000"><defs><style>.cls-1{fill:#626dff;stroke:#626dff;}.cls-1,.cls-3,.cls-5,.cls-6,.cls-7,.cls-8{stroke-miterlimit:10;}.cls-2{fill:#090c1f;opacity:0.48;}.cls-3,.cls-5{fill:#3d4afe;stroke:#3d4afe;}.cls-4{fill:#2e354d;opacity:0.49;}.cls-5,.cls-6{stroke-width:2px;fill-rule:evenodd;}.cls-6,.cls-8{fill:#282828;stroke:#282828;}.cls-13,.cls-7,.cls-9{fill:#fff;}.cls-7{stroke:#fff;}.cls-9{opacity:0.46;}.cls-10{fill:#9bb3fe;}.cls-11{opacity:0.1;}.cls-12{fill:#1f2437;}.cls-14{fill:#809bdd;}</style></defs><title>1m flat with face</title><g id="_1m_bottom_less" data-name="1m bottom less"><path class="cls-1" d="M882.2,932.54,473,686.26a5.26,5.26,0,0,0-7.27,1.43L447.46,718a5.25,5.25,0,0,0,2.14,7.1L754.42,908.49,230.05,776.25a5,5,0,0,0-6.07,3.6l-7.06,28a5,5,0,0,0,3.64,6L847.53,972a5,5,0,0,0,6.07-3.6l0-.2,5.2,3.13a5.26,5.26,0,0,0,7.28-1.42l18.21-30.27A5.25,5.25,0,0,0,882.2,932.54Zm-396.84-3.61L301.07,880.68l1.85-6.29c.39-1.3-.82-2.81-2.7-3.36l-70.8-20.92c-1.88-.56-3.71,0-4.1,1.35l-2.58,8.72-35-9.17a3.74,3.74,0,0,0-4.55,2.69l-3.14,12a3.74,3.74,0,0,0,2.65,4.58l34.42,9-1.89,6.4c-.39,1.31.82,2.82,2.7,3.37L288.71,910c1.88.56,3.71-.05,4.1-1.35l2.61-8.84,184.9,48.41a3.74,3.74,0,0,0,4.55-2.69l3.14-12A3.74,3.74,0,0,0,485.36,928.93Zm396.84,3.61.44-.74L473.4,685.52a6.78,6.78,0,0,0-3.48-1,5.73,5.73,0,0,0-5,2.71l-18.22,30.27a5.41,5.41,0,0,0-.78,2.82,6.45,6.45,0,0,0,3.22,5.46L749,906.23,230.26,775.42a5.54,5.54,0,0,0-1.45-.18,5.84,5.84,0,0,0-5.67,4.4l-7,28a5.76,5.76,0,0,0-.18,1.42,5.86,5.86,0,0,0,4.43,5.67l627,158.12a6,6,0,0,0,1.44.18,5.85,5.85,0,0,0,5.67-4.41h0l.05-.19-.83-.22-.45.74,5.21,3.14a6.72,6.72,0,0,0,3.47,1,5.76,5.76,0,0,0,5-2.71l18.21-30.27a5.43,5.43,0,0,0,.78-2.82,6.45,6.45,0,0,0-3.22-5.46l-.44.74-.45.74a4.73,4.73,0,0,1,2.38,4,3.72,3.72,0,0,1-.53,1.93l-18.21,30.27a4,4,0,0,1-3.51,1.87,5,5,0,0,1-2.58-.74l-6.21-3.73-.33,1.33h0a4.12,4.12,0,0,1-4,3.1,4.08,4.08,0,0,1-1-.13l-627-158.11a4.13,4.13,0,0,1-3.13-4,4.34,4.34,0,0,1,.12-1l7.06-28a4.13,4.13,0,0,1,4-3.11,4,4,0,0,1,1,.13l530,133.67L450.05,724.32a4.73,4.73,0,0,1-2.38-4,3.72,3.72,0,0,1,.53-1.93l18.22-30.27a4,4,0,0,1,3.5-1.87,5.12,5.12,0,0,1,2.59.73L881.75,933.28Zm-396.84-3.61.22-.84-183.43-48,1.63-5.54,0,.11a2.71,2.71,0,0,0,.11-.74,3.35,3.35,0,0,0-1-2.29,5.44,5.44,0,0,0-2.39-1.41l-70.79-20.92A5.62,5.62,0,0,0,228,849a4.49,4.49,0,0,0-2.17.52,2.84,2.84,0,0,0-1.37,1.66l-2.34,7.91-34.21-9a4.58,4.58,0,0,0-5.6,3.31l-3.14,12a4.34,4.34,0,0,0-.15,1.18,4.59,4.59,0,0,0,3.41,4.45L216,879.89l-1.77,6,.13-.41a2.33,2.33,0,0,0-.11.74,3.35,3.35,0,0,0,1,2.29,5.54,5.54,0,0,0,2.39,1.41l70.79,20.92a5.92,5.92,0,0,0,1.64.24,4.42,4.42,0,0,0,2.16-.52,2.86,2.86,0,0,0,1.38-1.66l2.37-8L480.1,949a4.58,4.58,0,0,0,5.6-3.31l3.14-12a4.36,4.36,0,0,0,.16-1.18,4.6,4.6,0,0,0-3.42-4.45l-.22.84-.22.83a2.86,2.86,0,0,1,2.13,2.78,2.74,2.74,0,0,1-.1.74l-3.14,12a2.88,2.88,0,0,1-2.77,2.17,2.55,2.55,0,0,1-.72-.1L294.83,898.74,292,908.37a1.09,1.09,0,0,1-.56.64,2.77,2.77,0,0,1-1.32.31,4.39,4.39,0,0,1-1.15-.17l-70.79-20.93a3.69,3.69,0,0,1-1.63-1,1.6,1.6,0,0,1-.53-1.09l0-.25,2.15-7.26-35.28-9.24a2.85,2.85,0,0,1-2.13-2.77,2.76,2.76,0,0,1,.1-.75l3.14-12a2.88,2.88,0,0,1,2.78-2.17,2.94,2.94,0,0,1,.71.09l35.83,9.39,2.82-9.53a1.1,1.1,0,0,1,.56-.63,2.77,2.77,0,0,1,1.32-.31,4.39,4.39,0,0,1,1.15.17L300,871.86a3.68,3.68,0,0,1,1.63.94,1.68,1.68,0,0,1,.53,1.1l0,.25L300,881.29l185.16,48.47Z"/><path class="cls-2" d="M224.11,797.93l-2.88,11.33L707.87,933l2.88-11.33L224.11,797.93m-3.25,74-3.8,13.17,74.65,21.58,3.81-13.16-74.66-21.59m191.76-188-5.95,9.91L847,958.11l5.94-9.91L412.62,683.93"/><path class="cls-3" d="M905.3,925.39v47.76a5,5,0,0,1-5,5H66.37a5,5,0,0,1-5-5V925.39a5,5,0,0,1,5-5h29L281.68,606.82,334,633.76,163.7,920.41H900.32A5,5,0,0,1,905.3,925.39Zm-5-5v-.86H165.22l170-286.14-53.87-27.73L94.87,919.55H66.37a5.84,5.84,0,0,0-5.84,5.84v47.76A5.84,5.84,0,0,0,66.37,979h834a5.83,5.83,0,0,0,5.84-5.84V925.39a5.83,5.83,0,0,0-5.84-5.84v1.72a4.11,4.11,0,0,1,4.11,4.12v47.76a4.11,4.11,0,0,1-4.11,4.12H66.37a4.11,4.11,0,0,1-4.11-4.12V925.39a4.11,4.11,0,0,1,4.11-4.12H95.85L282,608l50.8,26.15L162.19,921.27H900.32Z"/><path class="cls-4" d="M245.29,677.68l11.48,6.84L116.3,920.41H100.74L245.29,677.68"/></g><g id="_1m_rotating_top" data-name="1m rotating top"><path class="cls-5" d="M285.34,553.58l86.71-145.93c3.06-5.15,9-7.42,13.37-5.06l50.12,27.28c4.32,2.35,5.35,8.43,2.29,13.58L373,552.66"/><path class="cls-6" d="M329.17,417.39h70.36a6.34,6.34,0,0,1,6.34,6.34V549.87a6.33,6.33,0,0,1-6.34,6.33H329.17a6.33,6.33,0,0,1-6.34-6.33V423.73A6.34,6.34,0,0,1,329.17,417.39Z"/><path class="cls-7" d="M523.16,35.45V579.27a5.71,5.71,0,0,1-5.56,5.85H506.48a5.71,5.71,0,0,1-5.57-5.85V64.3l-129.36,495,.82,3.16a6.18,6.18,0,0,1-3.52,7.18L366,580.48a6.19,6.19,0,0,1-7.59,4.36L353,583.41a6.19,6.19,0,0,1-4.5-7.51l4.35-16.63-127-486v506a5.85,5.85,0,0,1-5.86,5.85h-11.7a5.85,5.85,0,0,1-5.86-5.85V35.45a5.85,5.85,0,0,1,5.86-5.85h6.92a6.27,6.27,0,0,1,4.51-4.53l5.44-1.42A6.2,6.2,0,0,1,232.7,28l1.79,6.86.09.07,2.25,2.28c1.75-2.53,4.49-3.83,6.95-3l94.59,30.94c3.19,1.05,4.69,5.25,3.33,9.39s-5,6.64-8.23,5.59l-80.2-26.23,85.26,86.41a5.67,5.67,0,0,1-.35,8l-2.5,2.46a5.65,5.65,0,0,1-8,.24l-85.5-86.66,120,459.12L482.6,62.7,395.5,151a5.65,5.65,0,0,1-8-.24l-2.5-2.46a5.67,5.67,0,0,1-.35-8L469,54.79,384.45,82.45c-3.19,1-6.88-1.46-8.23-5.59s.14-8.34,3.33-9.38l94.59-30.94c3-1,6.49,1.21,8,5l6.47-6.56a5.65,5.65,0,0,1,8,.24l2.51,2.47c.13.13.24.29.36.43l1.45.38v-3a5.71,5.71,0,0,1,5.57-5.85H517.6A5.71,5.71,0,0,1,523.16,35.45ZM517.6,29.6v-1H506.48a6.45,6.45,0,0,0-4.67,2,7,7,0,0,0-1.91,4.84v1.7l-.18,0-.26,1,.78-.65a5.76,5.76,0,0,0-.43-.51l-2.5-2.46a7.06,7.06,0,0,0-4.95-2.07,6.24,6.24,0,0,0-4.48,1.84l-6.47,6.55.73.72.94-.38a10.19,10.19,0,0,0-3.06-4.2,7.12,7.12,0,0,0-4.39-1.64,6,6,0,0,0-1.81.29L379.23,66.51a6.14,6.14,0,0,0-3.37,2.78,8.87,8.87,0,0,0-1.16,4.5,10.91,10.91,0,0,0,.55,3.38,10.47,10.47,0,0,0,3.06,4.69A7.23,7.23,0,0,0,383,83.71a6,6,0,0,0,1.82-.29l80.59-26.36-81.42,82.52a6.22,6.22,0,0,0-1.78,4.41,7,7,0,0,0,2.13,5l2.5,2.47a7.12,7.12,0,0,0,4.95,2.07,6.27,6.27,0,0,0,4.48-1.84l84.44-85.59L362.18,519.42l-118-451.68,82.84,84a6.25,6.25,0,0,0,4.48,1.84,7.08,7.08,0,0,0,4.94-2.07l2.5-2.47a7.06,7.06,0,0,0,2.14-5,6.27,6.27,0,0,0-1.78-4.41L256.93,56.15l76.22,24.93a6,6,0,0,0,1.81.29,7.29,7.29,0,0,0,4.65-1.85,10.47,10.47,0,0,0,3.06-4.69,11,11,0,0,0,.55-3.38,8.87,8.87,0,0,0-1.16-4.5,6.12,6.12,0,0,0-3.38-2.78L244.1,33.23a5.71,5.71,0,0,0-1.81-.29,6.77,6.77,0,0,0-3.49,1A9.28,9.28,0,0,0,236,36.64l.84.58.72-.72-2.28-2.31-.14-.11-.64.79,1-.26-1.79-6.86a7.17,7.17,0,0,0-7-5.32,7.06,7.06,0,0,0-1.87.24l-5.44,1.42a7.29,7.29,0,0,0-5.24,5.26l1,.25v-1h-6.92a6.88,6.88,0,0,0-6.88,6.87V579.27a6.88,6.88,0,0,0,6.88,6.87h11.7a6.86,6.86,0,0,0,6.87-6.87V81.14l125,478.13-4.28,16.37a6.93,6.93,0,0,0-.23,1.79,7.25,7.25,0,0,0,5.45,7l5.44,1.42a7.5,7.5,0,0,0,1.87.24,7.19,7.19,0,0,0,7-5.32l2.84-10.88-1-.25.41.93a7.14,7.14,0,0,0,4.1-8.36l-.76-2.91L499.9,72.2V579.27a7,7,0,0,0,1.91,4.84,6.41,6.41,0,0,0,4.67,2H517.6a6.41,6.41,0,0,0,4.67-2,7,7,0,0,0,1.9-4.84V35.45a7,7,0,0,0-1.9-4.84,6.45,6.45,0,0,0-4.67-2v2A4.38,4.38,0,0,1,520.79,32a5,5,0,0,1,1.35,3.44V579.27a5,5,0,0,1-1.35,3.44,4.39,4.39,0,0,1-3.19,1.4H506.48a4.39,4.39,0,0,1-3.2-1.4,5,5,0,0,1-1.35-3.44V56.39L370.5,559.27l.89,3.42a5.08,5.08,0,0,1,.16,1.27,5.18,5.18,0,0,1-3.12,4.72l-.44.2-3,11.34a5.14,5.14,0,0,1-5,3.81,5.35,5.35,0,0,1-1.36-.18l-5.44-1.42a5.11,5.11,0,0,1-3.76-6.28l4.41-16.88L224.77,65.32v514a4.85,4.85,0,0,1-4.84,4.84h-11.7a4.83,4.83,0,0,1-4.84-4.84V35.45a4.81,4.81,0,0,1,4.84-4.83h7.71l.19-.77a5.24,5.24,0,0,1,3.78-3.79l5.45-1.43a5.21,5.21,0,0,1,1.35-.17,5.13,5.13,0,0,1,5,3.81l1.88,7.17.31.26L237,38.8l.7-1a7.36,7.36,0,0,1,2.19-2.1,4.78,4.78,0,0,1,2.44-.73,3.59,3.59,0,0,1,1.17.19L338.05,66.1A4.15,4.15,0,0,1,340.31,68a6.83,6.83,0,0,1,.88,3.46,9.08,9.08,0,0,1-.45,2.75A8.36,8.36,0,0,1,338.28,78,5.11,5.11,0,0,1,335,79.33a3.86,3.86,0,0,1-1.17-.18L249.6,51.61,337.8,141a4.21,4.21,0,0,1,1.2,3,5,5,0,0,1-1.53,3.56L335,150a5.05,5.05,0,0,1-3.52,1.48,4.18,4.18,0,0,1-3-1.23L240.24,60.9,362.18,527.46,484.55,59.28l-89.78,91a4.2,4.2,0,0,1-3,1.23,5.05,5.05,0,0,1-3.52-1.48l-2.5-2.47a5,5,0,0,1-1.53-3.56,4.17,4.17,0,0,1,1.2-3l87.3-88.49-88.56,29a3.93,3.93,0,0,1-1.18.18,5.15,5.15,0,0,1-3.32-1.36,8.43,8.43,0,0,1-2.45-3.77,9,9,0,0,1-.45-2.75,6.85,6.85,0,0,1,.88-3.46,4.15,4.15,0,0,1,2.26-1.89L474.46,37.5a3.86,3.86,0,0,1,1.17-.18,5.07,5.07,0,0,1,3.13,1.2,8,8,0,0,1,2.43,3.36l.58,1.44,7.56-7.66a4.17,4.17,0,0,1,3-1.24,5,5,0,0,1,3.52,1.48l2.5,2.47.31.37.2.25,3,.79V35.45A5,5,0,0,1,503.28,32a4.38,4.38,0,0,1,3.2-1.39H517.6Z"/><path class="cls-8" d="M403.89,30.38V150.65a6,6,0,0,1-6.05,6H330.76a6,6,0,0,1-6-6V30.38a6,6,0,0,1,6-6.05h67.08A6.05,6.05,0,0,1,403.89,30.38Zm-6.05-6.05v-1H330.76a7.09,7.09,0,0,0-7.09,7.1V150.65a7.09,7.09,0,0,0,7.09,7.09h67.08a7.1,7.1,0,0,0,7.1-7.09V30.38a7.1,7.1,0,0,0-7.1-7.1v2.1a5,5,0,0,1,5,5V150.65a5,5,0,0,1-5,5H330.76a5,5,0,0,1-5-5V30.38a5,5,0,0,1,5-5h67.08Z"/><path class="cls-9" d="M390.91,50.33c4.38.08,4.84,1.13,5.12,2.47V97.18c0,1.23,0,5.34-.16,5.67,0,0,0,.05,0,.05-.21,0-.66-3.78-.79-6.37-2-28.21-3.53-40-17-45.74-1.48-.26,8.4-.38,12.85-.46"/><path class="cls-7" d="M523.16,29V42.48a5.85,5.85,0,0,1-5.86,5.85H208.23a5.85,5.85,0,0,1-5.86-5.85V29a5.85,5.85,0,0,1,5.86-5.85H517.3A5.85,5.85,0,0,1,523.16,29Zm-5.86-5.85v-1H208.23A6.89,6.89,0,0,0,201.35,29V42.48a6.88,6.88,0,0,0,6.88,6.87H517.3a6.87,6.87,0,0,0,6.87-6.87V29a6.88,6.88,0,0,0-6.87-6.87v2A4.81,4.81,0,0,1,522.14,29V42.48a4.83,4.83,0,0,1-4.84,4.84H208.23a4.83,4.83,0,0,1-4.84-4.84V29a4.81,4.81,0,0,1,4.84-4.83H517.3Z"/><path class="cls-1" d="M544.05,606.28a180.65,180.65,0,1,1-361.3,0c0-85.17,55.3-155.5,134.61-174.58L350,541.2l4.24-4H530.35A180,180,0,0,1,544.05,606.28Zm-13.7-69.09v-1.1H353.84l-3.2,3L317.72,431.54l-.59-1.67c-79.8,19.19-135.48,90.72-135.48,176.41a181.75,181.75,0,1,0,349.72-69.51l-.28-.68h-.74v1.1l-1,.42a179.57,179.57,0,1,1-345.49,68.67c0-84.65,55-155.78,133.87-174.74l-.45-1.29.45,1.29,31.73,111.73,5.27-5H530.35v-1.1l-1,.42Z"/><path class="cls-1" d="M566.23,542.89v21.55a6.33,6.33,0,0,1-6.33,6.34H165.63a6.33,6.33,0,0,1-6.33-6.34V542.89a6.33,6.33,0,0,1,6.33-6.34H559.9A6.33,6.33,0,0,1,566.23,542.89Zm-6.33-6.34v-1.1H165.63a7.45,7.45,0,0,0-7.44,7.44v21.55a7.45,7.45,0,0,0,7.44,7.44H559.9a7.44,7.44,0,0,0,7.43-7.44V542.89a7.44,7.44,0,0,0-7.43-7.44v2.2a5.24,5.24,0,0,1,5.23,5.24v21.55a5.22,5.22,0,0,1-5.23,5.24H165.63a5.22,5.22,0,0,1-5.23-5.24V542.89a5.24,5.24,0,0,1,5.23-5.24H559.9Z"/><path class="cls-10" d="M531.15,575.94a171.07,171.07,0,1,1-336.77,0"/><path class="cls-11" d="M304.25,586c-4.63,80.47,36.75,133.39,99,176.06a3.41,3.41,0,0,1-1.67,6.2C304,782.19,204.87,733.7,199.33,586a5,5,0,0,1,5-5.17l95.75.64A4.25,4.25,0,0,1,304.25,586Z"/></g><g id="Layer_3" data-name="Layer 3"><g id="Neutral"><polygon class="cls-12" points="345.17 720.8 425.9 722.74 413.22 731.08 354.96 734.58 345.17 720.8"/><path d="M345.34,720.89l80.28,1.93L413.21,731,355,734.49l-9.66-13.6m-.34-.18,9.92,14,58.35-3.52,12.9-8.49L345,720.71Z"/></g><g id="right_normal" data-name="right normal"><ellipse class="cls-13" cx="309.5" cy="632.96" rx="39.66" ry="39.27"/></g><g id="Right_Pupil" data-name="Right Pupil"><path d="M309,646.71c-7.57,0-13.73-6.43-13.73-14.33s6.16-14.33,13.73-14.33,13.72,6.43,13.72,14.33S316.61,646.71,309,646.71Z"/><path d="M309,618.14c7.52,0,13.63,6.39,13.63,14.24s-6.11,14.24-13.63,14.24-13.63-6.39-13.63-14.24,6.11-14.24,13.63-14.24m0-.19c-7.63,0-13.82,6.46-13.82,14.43s6.19,14.43,13.82,14.43,13.82-6.46,13.82-14.43S316.67,618,309,618Z"/></g><path class="cls-14" d="M349.51,621.52c-5.08-16.36-18.47-26.85-39.28-28.21-22,.46-36.17,10.54-40.78,28.37a1.88,1.88,0,0,0,2.89,1.92c26.85-19.7,51.45-18.44,74.42,0C348.1,624.73,350,623.12,349.51,621.52Z"/><g id="left_normal" data-name="left normal"><ellipse class="cls-13" cx="466.27" cy="632.96" rx="40.1" ry="40.23"/></g><g id="Left_Pupil" data-name="Left Pupil"><path d="M466,646.71c-7.57,0-13.73-6.5-13.73-14.51s6.16-14.51,13.73-14.51,13.73,6.51,13.73,14.51S473.55,646.71,466,646.71Z"/><path d="M466,617.79c7.52,0,13.63,6.46,13.63,14.41S473.5,646.62,466,646.62s-13.64-6.47-13.64-14.42,6.12-14.41,13.64-14.41m0-.19c-7.63,0-13.82,6.54-13.82,14.6s6.19,14.61,13.82,14.61,13.82-6.54,13.82-14.61-6.19-14.6-13.82-14.6Z"/></g><path class="cls-14" d="M506.29,620.37C501.21,604,487.82,593.51,467,592.16c-22,.45-36.18,10.54-40.78,28.36a1.87,1.87,0,0,0,2.88,1.92c25.63-20,50.57-19.87,74.43.06C504.86,623.6,506.78,622,506.29,620.37Z"/></g></svg>