<?xml version="1.0" encoding="utf-8"?>
<!-- Generator: Adobe Illustrator 23.0.6, SVG Export Plug-In . SVG Version: 6.00 Build 0)  -->
<svg version="1.1" id="Layer_13" xmlns="http://www.w3.org/2000/svg" xmlns:xlink="http://www.w3.org/1999/xlink" x="0px" y="0px"
	 viewBox="0 0 1000 1000" style="enable-background:new 0 0 1000 1000;" xml:space="preserve">
<style type="text/css">
	.st0{fill:#626DFF;}
	.st1{fill:none;stroke:#FFFFFF;stroke-width:1.8733;stroke-miterlimit:10;}
	.st2{opacity:0.4706;}
	.st3{fill:#090C1F;}
	.st4{opacity:0.4118;}
	.st5{fill:#3D4AFE;}
	.st6{opacity:0.4902;}
	.st7{fill:#2E354D;}
	.st8{opacity:0.4784;}
	.st9{fill:#FFFFFF;}
	.st10{fill:none;stroke:#FFFFFF;stroke-width:1.8259;stroke-miterlimit:10;}
	.st11{fill:#141414;}
	.st12{opacity:0.4588;}
	.st13{fill:#9BB3FE;}
	.st14{opacity:0.15;}
	.st15{fill:#1F2437;}
	.st16{fill:#809BDD;}
</style>
<g id="Rounded_Rectangle_4">
	<g>
		<path class="st0" d="M918.07,915.97L238.26,744.53c-2.9-0.73-5.85,1.02-6.58,3.91l-7.65,30.34c-0.73,2.89,1.03,5.83,3.94,6.56
			l679.81,171.44c2.9,0.73,5.85-1.02,6.58-3.91l7.65-30.34C922.74,919.64,920.98,916.7,918.07,915.97z"/>
	</g>
	<g>
		<path class="st1" d="M918.07,915.97L238.26,744.53c-2.9-0.73-5.85,1.02-6.58,3.91l-7.65,30.34c-0.73,2.89,1.03,5.83,3.94,6.56
			l679.81,171.44c2.9,0.73,5.85-1.02,6.58-3.91l7.65-30.34C922.74,919.64,920.98,916.7,918.07,915.97z"/>
	</g>
</g>
<g id="Rectangle_1" class="st2">
	<g>
		
			<rect x="487.75" y="569.05" transform="matrix(0.2465 -0.9691 0.9691 0.2465 -443.0134 1112.767)" class="st3" width="12.68" height="544.46"/>
	</g>
</g>
<g id="Rounded_Rectangle_5">
	<g>
		<path class="st0" d="M515.09,910.07l-322.73-84.49c-2.15-0.56-4.36,0.74-4.93,2.92l-3.4,13c-0.57,2.18,0.71,4.4,2.87,4.96
			l322.73,84.49c2.15,0.56,4.36-0.74,4.93-2.92l3.4-13C518.53,912.86,517.25,910.64,515.09,910.07z"/>
	</g>
	<g>
		<path class="st1" d="M515.09,910.07l-322.73-84.49c-2.15-0.56-4.36,0.74-4.93,2.92l-3.4,13c-0.57,2.18,0.71,4.4,2.87,4.96
			l322.73,84.49c2.15,0.56,4.36-0.74,4.93-2.92l3.4-13C518.53,912.86,517.25,910.64,515.09,910.07z"/>
	</g>
</g>
<g id="Rounded_Rectangle_6">
	<g>
		<path class="st0" d="M314.34,847.29l-76.76-22.69c-2.04-0.6-4.03,0.06-4.45,1.47l-10.97,37.11c-0.42,1.41,0.9,3.05,2.93,3.65
			l76.76,22.69c2.04,0.6,4.03-0.06,4.45-1.47l10.97-37.11C317.7,849.53,316.38,847.9,314.34,847.29z"/>
	</g>
	<g>
		<path class="st1" d="M314.34,847.29l-76.76-22.69c-2.04-0.6-4.03,0.06-4.45,1.47l-10.97,37.11c-0.42,1.41,0.9,3.05,2.93,3.65
			l76.76,22.69c2.04,0.6,4.03-0.06,4.45-1.47l10.97-37.11C317.7,849.53,316.38,847.9,314.34,847.29z"/>
	</g>
</g>
<g id="Rectangle_3" class="st4">
	<g>
		
			<rect x="259.28" y="824.98" transform="matrix(0.2777 -0.9607 0.9607 0.2777 -640.3619 882.5344)" class="st3" width="14.86" height="84.26"/>
	</g>
</g>
<g id="Rounded_Rectangle_2">
	<g>
		<path class="st5" d="M422.71,454.49l-42.66-23.22c-3.68-2-8.78-0.08-11.38,4.31L88.13,907.73c-2.6,4.38-1.73,9.56,1.95,11.56
			l42.66,23.22c3.68,2,8.78,0.08,11.38-4.31l280.53-472.15C427.26,461.67,426.39,456.49,422.71,454.49z"/>
	</g>
	<g>
		<path class="st1" d="M422.71,454.49l-42.66-23.22c-3.68-2-8.78-0.08-11.38,4.31L88.13,907.73c-2.6,4.38-1.73,9.56,1.95,11.56
			l42.66,23.22c3.68,2,8.78,0.08,11.38-4.31l280.53-472.15C427.26,461.67,426.39,456.49,422.71,454.49z"/>
	</g>
</g>
<g id="Rectangle_4" class="st6">
	<g>
		
			<rect x="9" y="777.35" transform="matrix(0.5116 -0.8592 0.8592 0.5116 -588.3112 534.1348)" class="st7" width="333.42" height="14.49"/>
	</g>
</g>
<g id="Rounded_Rectangle_3">
	<g>
		<path class="st0" d="M945.37,913.99L501.63,646.96c-2.82-1.7-6.35-1-7.89,1.55L474,681.33c-1.54,2.55-0.5,6,2.32,7.7
			l443.74,267.03c2.82,1.7,6.35,1,7.89-1.55l19.75-32.82C949.23,919.13,948.19,915.68,945.37,913.99z"/>
	</g>
	<g>
		<path class="st1" d="M945.37,913.99L501.63,646.96c-2.82-1.7-6.35-1-7.89,1.55L474,681.33c-1.54,2.55-0.5,6,2.32,7.7
			l443.74,267.03c2.82,1.7,6.35,1,7.89-1.55l19.75-32.82C949.23,919.13,948.19,915.68,945.37,913.99z"/>
	</g>
</g>
<g id="Rectangle_2" class="st8">
	<g>
		
			<rect x="665.41" y="514.68" transform="matrix(0.5146 -0.8574 0.8574 0.5146 -353.9796 960.8169)" class="st3" width="12.53" height="556.78"/>
	</g>
</g>
<g id="Rounded_Rectangle_1">
	<g>
		<path class="st5" d="M965.02,900.84H60.79c-2.98,0-5.4,2.42-5.4,5.4v51.79c0,2.98,2.42,5.4,5.4,5.4h904.23
			c2.98,0,5.4-2.42,5.4-5.4v-51.79C970.42,903.25,968,900.84,965.02,900.84z"/>
	</g>
	<g>
		<path class="st1" d="M965.02,900.84H60.79c-2.98,0-5.4,2.42-5.4,5.4v51.79c0,2.98,2.42,5.4,5.4,5.4h904.23
			c2.98,0,5.4-2.42,5.4-5.4v-51.79C970.42,903.25,968,900.84,965.02,900.84z"/>
	</g>
</g>
<g id="_x31_m_rotating_top">
	<g id="Rounded_Rectangle_10_copy">
		<g>
			<path d="M392.05,443.87h-59.89c-2.98,0-5.4,2.42-5.4,5.4v107.36c0,2.98,2.42,5.4,5.4,5.4h59.89c2.98,0,5.4-2.42,5.4-5.4V449.26
				C397.45,446.28,395.03,443.87,392.05,443.87z"/>
		</g>
		<g>
			<path class="st1" d="M392.05,443.87h-59.89c-2.98,0-5.4,2.42-5.4,5.4v107.36c0,2.98,2.42,5.4,5.4,5.4h59.89
				c2.98,0,5.4-2.42,5.4-5.4V449.26C397.45,446.28,395.03,443.87,392.05,443.87z"/>
		</g>
	</g>
	<g id="Rounded_Rectangle_8">
		<g>
			<path class="st9" d="M230.2,60.27h-10.79c-2.98,0-5.4,2.42-5.4,5.4v501.21c0,2.98,2.42,5.4,5.4,5.4h10.79
				c2.98,0,5.4-2.42,5.4-5.4V65.67C235.59,62.69,233.18,60.27,230.2,60.27z"/>
		</g>
		<g>
			<path class="st1" d="M230.2,60.27h-10.79c-2.98,0-5.4,2.42-5.4,5.4v501.21c0,2.98,2.42,5.4,5.4,5.4h10.79
				c2.98,0,5.4-2.42,5.4-5.4V65.67C235.59,62.69,233.18,60.27,230.2,60.27z"/>
		</g>
	</g>
	<g id="Rounded_Rectangle_8_copy">
		<g>
			<path class="st9" d="M504.54,60.27h-10.25c-2.83,0-5.13,2.42-5.13,5.4v501.21c0,2.98,2.29,5.4,5.13,5.4h10.25
				c2.83,0,5.13-2.42,5.13-5.4V65.67C509.67,62.69,507.37,60.27,504.54,60.27z"/>
		</g>
		<g>
			<path class="st10" d="M504.54,60.27h-10.25c-2.83,0-5.13,2.42-5.13,5.4v501.21c0,2.98,2.29,5.4,5.13,5.4h10.25
				c2.83,0,5.13-2.42,5.13-5.4V65.67C509.67,62.69,507.37,60.27,504.54,60.27z"/>
		</g>
	</g>
	<g id="Rounded_Rectangle_11">
		<g>
			<path class="st9" d="M339.5,162.29l-95.8-97.1c-1.95-1.97-5.24-1.87-7.36,0.22l-2.3,2.27c-2.12,2.09-2.26,5.39-0.32,7.36
				l95.8,97.1c1.95,1.97,5.24,1.87,7.36-0.22l2.3-2.27C341.3,167.56,341.45,164.26,339.5,162.29z"/>
		</g>
		<g>
			<path class="st1" d="M339.5,162.29l-95.8-97.1c-1.95-1.97-5.24-1.87-7.36,0.22l-2.3,2.27c-2.12,2.09-2.26,5.39-0.32,7.36
				l95.8,97.1c1.95,1.97,5.24,1.87,7.36-0.22l2.3-2.27C341.3,167.56,341.45,164.26,339.5,162.29z"/>
		</g>
	</g>
	<g id="Rounded_Rectangle_11_copy">
		<g>
			<path class="st9" d="M487.49,67.69l-2.3-2.27c-2.12-2.09-5.42-2.19-7.36-0.22l-95.8,97.1c-1.95,1.97-1.8,5.27,0.32,7.36l2.3,2.27
				c2.12,2.09,5.42,2.19,7.36,0.22l95.8-97.1C489.75,73.08,489.61,69.78,487.49,67.69z"/>
		</g>
		<g>
			<path class="st1" d="M487.49,67.69l-2.3-2.27c-2.12-2.09-5.42-2.19-7.36-0.22l-95.8,97.1c-1.95,1.97-1.8,5.27,0.32,7.36l2.3,2.27
				c2.12,2.09,5.42,2.19,7.36,0.22l95.8-97.1C489.75,73.08,489.61,69.78,487.49,67.69z"/>
		</g>
	</g>
	<g id="Rounded_Rectangle_12">
		<g>
			<path class="st9" d="M339.36,93.02l-87.18-28.52c-2.94-0.96-6.34,1.35-7.59,5.16c-1.25,3.81,0.13,7.68,3.07,8.65l87.18,28.52
				c2.94,0.96,6.34-1.35,7.59-5.16C343.68,97.86,342.3,93.98,339.36,93.02z"/>
		</g>
		<g>
			<path class="st1" d="M339.36,93.02l-87.18-28.52c-2.94-0.96-6.34,1.35-7.59,5.16c-1.25,3.81,0.13,7.68,3.07,8.65l87.18,28.52
				c2.94,0.96,6.34-1.35,7.59-5.16C343.68,97.86,342.3,93.98,339.36,93.02z"/>
		</g>
	</g>
	<g id="Rounded_Rectangle_12_copy">
		<g>
			<path class="st9" d="M472.08,71.82c-1.25-3.81-4.64-6.12-7.59-5.16l-87.18,28.52c-2.94,0.96-4.32,4.83-3.07,8.65
				c1.25,3.81,4.64,6.12,7.59,5.16l87.18-28.52C471.95,79.51,473.33,75.64,472.08,71.82z"/>
		</g>
		<g>
			<path class="st1" d="M472.08,71.82c-1.25-3.81-4.64-6.12-7.59-5.16l-87.18,28.52c-2.94,0.96-4.32,4.83-3.07,8.65
				c1.25,3.81,4.64,6.12,7.59,5.16l87.18-28.52C471.95,79.51,473.33,75.64,472.08,71.82z"/>
		</g>
	</g>
	<g id="Rounded_Rectangle_13">
		<g>
			<path class="st9" d="M370.7,551.36L241.96,58.81c-0.79-3.02-3.92-4.82-7-4.02l-5.01,1.31c-3.08,0.8-4.93,3.91-4.14,6.93
				l128.73,492.55c0.79,3.02,3.92,4.82,7,4.02l5.01-1.31C369.63,557.48,371.49,554.38,370.7,551.36z"/>
		</g>
		<g>
			<path class="st1" d="M370.7,551.36L241.96,58.81c-0.79-3.02-3.92-4.82-7-4.02l-5.01,1.31c-3.08,0.8-4.93,3.91-4.14,6.93
				l128.73,492.55c0.79,3.02,3.92,4.82,7,4.02l5.01-1.31C369.63,557.48,371.49,554.38,370.7,551.36z"/>
		</g>
	</g>
	<g id="Rounded_Rectangle_13_copy">
		<g>
			<path class="st9" d="M489.42,68.51l-5.01-1.31c-3.08-0.8-6.21,0.99-7,4.02L348.67,563.77c-0.79,3.02,1.06,6.12,4.14,6.93
				l5.01,1.31c3.08,0.8,6.21-0.99,7-4.02L493.56,75.44C494.35,72.41,492.5,69.31,489.42,68.51z"/>
		</g>
		<g>
			<path class="st1" d="M489.42,68.51l-5.01-1.31c-3.08-0.8-6.21,0.99-7,4.02L348.67,563.77c-0.79,3.02,1.06,6.12,4.14,6.93
				l5.01,1.31c3.08,0.8,6.21-0.99,7-4.02L493.56,75.44C494.35,72.41,492.5,69.31,489.42,68.51z"/>
		</g>
	</g>
	<g id="Rounded_Rectangle_10">
		<g>
			<path class="st11" d="M392.05,55.42h-59.89c-2.98,0-5.4,2.42-5.4,5.4v107.36c0,2.98,2.42,5.4,5.4,5.4h59.89
				c2.98,0,5.4-2.42,5.4-5.4V60.81C397.45,57.83,395.03,55.42,392.05,55.42z"/>
		</g>
		<g>
			<path class="st1" d="M392.05,55.42h-59.89c-2.98,0-5.4,2.42-5.4,5.4v107.36c0,2.98,2.42,5.4,5.4,5.4h59.89
				c2.98,0,5.4-2.42,5.4-5.4V60.81C397.45,57.83,395.03,55.42,392.05,55.42z"/>
		</g>
	</g>
	<g id="Rounded_Rectangle_15" class="st12">
		<g>
			<path class="st9" d="M385.86,78.62c-3.97,0.07-12.79,0.18-11.47,0.42c12,5.15,13.34,15.64,15.16,40.82
				c0.12,2.47,0.57,6.13,0.74,5.65c0.12-0.3,0.1-3.97,0.14-5.06V80.83C390.18,79.64,389.77,78.69,385.86,78.62z"/>
		</g>
	</g>
	<g id="Rectangle_5">
		<g>
			<path d="M339.45,135.67c-4.7-13.99-6.25-31.03-7.55-59.33c-1.67-0.81-2.3-0.98-3.51-0.14c0.44,34.61,3.14,62.32,3.3,92.79
				c4.66,0.01,9.33,0,35,1.35C352.07,160.14,344.18,149.42,339.45,135.67z"/>
		</g>
	</g>
	<g id="Rounded_Rectangle_9">
		<g>
			<path class="st9" d="M504.27,54.34H219.41c-2.98,0-5.4,2.42-5.4,5.4v12.41c0,2.98,2.42,5.4,5.4,5.4h284.86
				c2.98,0,5.4-2.42,5.4-5.4V59.73C509.67,56.75,507.25,54.34,504.27,54.34z"/>
		</g>
		<g>
			<path class="st1" d="M504.27,54.34H219.41c-2.98,0-5.4,2.42-5.4,5.4v12.41c0,2.98,2.42,5.4,5.4,5.4h284.86
				c2.98,0,5.4-2.42,5.4-5.4V59.73C509.67,56.75,507.25,54.34,504.27,54.34z"/>
		</g>
	</g>
	<g id="Group_1_1_">
		<g id="Ellipse_3_2_">
			<g>
				<path class="st0" d="M503.41,545.84H357.04l-3.5,3.41l-0.87-3.41h-1.62v-6.35l-21.72-85.26
					c-69.57,14.71-121.79,76.46-121.79,150.42c0,84.92,68.84,153.76,153.76,153.76c84.92,0,153.76-68.84,153.76-153.76
					C515.06,583.81,510.91,563.95,503.41,545.84z"/>
			</g>
			<g>
				<path class="st1" d="M503.41,545.84H357.04l-3.5,3.41l-0.87-3.41h-1.62v-6.35l-21.72-85.26
					c-69.57,14.71-121.79,76.46-121.79,150.42c0,84.92,68.84,153.76,153.76,153.76c84.92,0,153.76-68.84,153.76-153.76
					C515.06,583.81,510.91,563.95,503.41,545.84z"/>
			</g>
		</g>
	</g>
	<g id="Rounded_Rectangle_7">
		<g>
			<path class="st0" d="M528.55,545.3H192.97c-2.98,0-5.4,2.42-5.4,5.4v18.34c0,2.98,2.42,5.4,5.4,5.4h335.58
				c2.98,0,5.4-2.42,5.4-5.4v-18.34C533.95,547.71,531.53,545.3,528.55,545.3z"/>
		</g>
		<g>
			<path class="st1" d="M528.55,545.3H192.97c-2.98,0-5.4,2.42-5.4,5.4v18.34c0,2.98,2.42,5.4,5.4,5.4h335.58
				c2.98,0,5.4-2.42,5.4-5.4v-18.34C533.95,547.71,531.53,545.3,528.55,545.3z"/>
		</g>
	</g>
	<g id="Layer_6">
		<g>
			<path class="st13" d="M217.44,578.82c-1.5,8.38-2.28,17.01-2.28,25.82c0,80.41,65.19,145.6,145.6,145.6s145.6-65.19,145.6-145.6
				c0-8.81-0.78-17.44-2.28-25.82"/>
		</g>
	</g>
	<g id="Layer_8" class="st14">
		<path d="M307.39,583.51l-81.49-0.54c-2.4-0.02-4.33,2-4.24,4.4c4.72,125.73,89.07,167.01,172.15,155.13
			c2.72-0.39,3.68-3.72,1.41-5.27c-52.98-36.32-88.2-81.36-84.26-149.86C311.07,585.29,309.47,583.52,307.39,583.51z"/>
	</g>
</g>
<g id="_x31_m_face">
	<g id="Neutral_mouth_2_">
		<g>
			<polygon class="st15" points="382.47,682.57 443.47,683.89 433.89,689.54 389.87,691.91 			"/>
		</g>
		<g>
			<path d="M382.59,682.63l60.68,1.31l-9.38,5.54l-43.99,2.37L382.59,682.63 M382.36,682.52l7.49,9.45l44.07-2.38l9.75-5.75
				L382.36,682.52L382.36,682.52z"/>
		</g>
	</g>
	<g id="right_normal_2_">
		<g>
			<ellipse class="st9" cx="362.98" cy="619.14" rx="26.53" ry="26.27"/>
		</g>
	</g>
	<g id="Right_Pupil_2_">
		<g>
			<ellipse cx="363.73" cy="617.66" rx="8.14" ry="8.5"/>
		</g>
		<g>
			<path d="M363.73,609.22c4.45,0,8.08,3.79,8.08,8.44c0,4.65-3.62,8.44-8.08,8.44c-4.45,0-8.08-3.79-8.08-8.44
				C355.65,613,359.27,609.22,363.73,609.22 M363.73,609.1c-4.52,0-8.19,3.83-8.19,8.55s3.67,8.55,8.19,8.55
				c4.52,0,8.19-3.83,8.19-8.55S368.25,609.1,363.73,609.1L363.73,609.1z"/>
		</g>
	</g>
	<g id="right_eyelid">
		<g>
			<path class="st16" d="M389.74,611.49c-3.4-10.94-12.35-17.96-26.27-18.87c-14.73,0.31-24.2,7.05-27.28,18.97
				c-0.27,1.04,0.96,1.82,1.93,1.28c16.53-9.14,33.12-8.74,49.78,0.04C388.92,613.45,390.07,612.56,389.74,611.49z"/>
		</g>
	</g>
	<g id="left_normal_2_">
		<g>
			<ellipse class="st9" cx="467.84" cy="619.14" rx="26.82" ry="26.9"/>
		</g>
	</g>
	<g id="Left_Pupil_2_">
		<g>
			<ellipse cx="468.58" cy="617.64" rx="8.24" ry="8.71"/>
		</g>
		<g>
			<path d="M468.58,608.98c4.52,0,8.19,3.88,8.19,8.66s-3.67,8.66-8.19,8.66s-8.19-3.88-8.19-8.66S464.07,608.98,468.58,608.98
				 M468.58,608.87c-4.58,0-8.3,3.93-8.3,8.77s3.72,8.77,8.3,8.77s8.3-3.93,8.3-8.77S473.17,608.87,468.58,608.87L468.58,608.87z"/>
		</g>
	</g>
	<g id="left_eyelid">
		<g>
			<path class="st16" d="M494.6,610.72c-3.4-10.94-12.35-17.96-26.27-18.87c-14.73,0.31-24.2,7.05-27.28,18.97
				c-0.27,1.04,0.96,1.82,1.93,1.28c16.53-9.14,33.12-8.74,49.78,0.04C493.78,612.68,494.93,611.79,494.6,610.72z"/>
		</g>
	</g>
</g>
</svg>
