<svg xmlns="http://www.w3.org/2000/svg" viewBox="0 0 1000 1000"><defs><style>.cls-1{fill:#1029bf;}.cls-2,.cls-4{fill:#090c1f;}.cls-2{opacity:0.6;}.cls-3,.cls-5{opacity:0.5;}.cls-4{opacity:0.63;}.cls-11,.cls-5,.cls-7,.cls-9{fill:#fff;}.cls-6{fill:#56575d;}.cls-7{fill-rule:evenodd;}.cls-8{fill:#a1a1a1;opacity:0.78;}.cls-10{fill:#92d0ff;}.cls-11{opacity:0.36;}.cls-12{fill:#1f2437;}</style></defs><title>2m flat with face</title><g id="telescope_bottom" data-name="telescope bottom"><path class="cls-1" d="M773.15,730.61l-49.61-23.07L758.37,640a5.16,5.16,0,0,0-2.4-6.79l-37.51-20.05A5,5,0,0,0,711.6,615L555.85,916.94a5.16,5.16,0,0,0,2.41,6.8l37.51,20a5,5,0,0,0,6.86-1.84L659.84,831l14.1,67.12c.7,3.38,4.68,5.4,8.89,4.51L719.35,895c4.2-.88,7-4.33,6.32-7.7L698.23,756.61l5.39-10.46L754.85,770a6,6,0,0,0,7.9-2.88L776,738.51A6,6,0,0,0,773.15,730.61ZM340.39,883.46l25.5-121.41c.7-3.37-2.13-6.82-6.33-7.7L323,746.68c-4.2-.89-8.19,1.13-8.89,4.5L302,809l-24.17-46.86L329.76,738a6,6,0,0,0,2.89-7.9l-13.29-28.57a6,6,0,0,0-7.9-2.89l-53.55,24.9-42.8-83a5,5,0,0,0-6.86-1.84l-37.51,20a5.15,5.15,0,0,0-2.41,6.79L324.08,967.51a5,5,0,0,0,6.86,1.84l37.51-20a5.17,5.17,0,0,0,2.4-6.8Z"/><path class="cls-2" d="M698.31,782.08,675.65,880l7.1,9,25.57-58.26-10-48.65M325.36,779c2.09,18.21,2.91,29.58,3.57,38.73.24,3.28.46,6.38.71,9.37A269.92,269.92,0,0,0,334.31,860c.28,11,1,13.84,1.58,15.23a1.62,1.62,0,0,0,.45.59l.2.1.21,0h.4a1.12,1.12,0,0,1,.36,0c1-5.18,2-11,3.17-17,3.5-18.85,7.47-40.21,10.95-56.45a70.42,70.42,0,0,1-7.28-7,110.29,110.29,0,0,0-19-16.58m412.08-58.62.9,39.21,20.86-1.87,1.07-27.5-22.83-9.84M293.9,702.32c-2,2-2.17,2.49-2.17,2.61h.09a7.82,7.82,0,0,0,1.91-.61c0-.7.11-1.36.17-2m13.24-2.54c-2.45,0-6.83,2-10.34,3.62-1,.45-1.89.87-2.67,1.21a116.4,116.4,0,0,0,.14,14.37c.47,9,1,18.39-2.14,32.48,6.57-5,12.71-7.3,19.8-10,2.69-1,5.47-2.06,8.43-3.32-1.4-3.9-2.72-7.42-4-10.82-3.83-10.19-6.86-18.26-8.39-27.46a2.67,2.67,0,0,0-.84-.11M682.75,889l-7.1-9,22.66-97.93,10,48.65L682.75,889m15.57-107.88-22.9,98.95,7.38,9.32,25.74-58.63-10.22-49.64M336.85,876h-.1l-.21,0-.2-.1a1.62,1.62,0,0,1-.45-.59c-.62-1.39-1.3-4.28-1.58-15.23a269.92,269.92,0,0,1-4.67-32.91c-.25-3-.47-6.09-.71-9.37-.66-9.15-1.48-20.52-3.57-38.73a110.29,110.29,0,0,1,19,16.58,70.42,70.42,0,0,0,7.28,7c-3.48,16.24-7.45,37.6-10.95,56.45-1.13,6.06-2.2,11.83-3.17,17a1.12,1.12,0,0,0-.36,0h-.3M325.1,778.57c2.9,25.13,3.38,37.27,4.34,48.55a267.91,267.91,0,0,0,4.67,32.93c.27,10.79.92,13.78,1.59,15.28a1.85,1.85,0,0,0,.52.67l.26.12.26,0h.41a.65.65,0,0,1,.5.17c4-21.14,9.57-52.23,14.21-73.87-6.77-5.22-11.81-13.72-26.76-23.89m413.24-19-.9-39.21,22.83,9.84-1.07,27.5-20.86,1.87m-1.12-39.52.92,39.75,21.26-1.91,1.08-27.82-23.26-10M291.73,704.93c0-.12.18-.63,2.17-2.61-.06.65-.12,1.31-.17,2a7.82,7.82,0,0,1-1.91.61h-.09m.4,46.53c3.09-14.09,2.61-23.43,2.14-32.48a116.4,116.4,0,0,1-.14-14.37c.78-.34,1.7-.76,2.67-1.21,3.51-1.61,7.89-3.62,10.34-3.62a2.67,2.67,0,0,1,.84.11c1.53,9.2,4.56,17.27,8.39,27.46,1.27,3.4,2.59,6.92,4,10.82-3,1.26-5.74,2.31-8.43,3.32-7.09,2.67-13.23,5-19.8,10m15-51.89c-3.23,0-9.7,3.41-13.21,4.9q.09-1.34.24-2.7c-2.55,2.49-3.06,3.37-2.35,3.37a7.42,7.42,0,0,0,2.11-.67c-1,14.53,2.82,25.42-2.13,47.5,9.3-7.21,17.87-9,28.82-13.68-5.71-16-10.43-26.25-12.46-38.56a2.88,2.88,0,0,0-1-.16"/><path class="cls-1" d="M300.73,618a5,5,0,0,0-6.86-1.84l-37.51,20A5.16,5.16,0,0,0,254,643L409.7,944.91a5,5,0,0,0,6.86,1.85l37.51-20a5.15,5.15,0,0,0,2.4-6.79Zm540.86,37.82-37.51-20a5,5,0,0,0-6.86,1.84L641.48,939.54a5.15,5.15,0,0,0,2.4,6.79l37.51,20a5,5,0,0,0,6.86-1.84L844,662.62A5.16,5.16,0,0,0,841.59,655.82Z"/><path class="cls-3" d="M182.42,662.24a5.94,5.94,0,0,1,5.3,3.24L299.58,884.1a5.94,5.94,0,0,1-2.58,8l-.53.27a6,6,0,0,1-2.71.65,5.94,5.94,0,0,1-5.29-3.23L176.6,671.17a5.94,5.94,0,0,1,2.59-8l.53-.28a5.93,5.93,0,0,1,2.7-.65m100.49,6a5.93,5.93,0,0,0-2.7.65l-.53.27a6,6,0,0,0-2.59,8L389,895.73a6,6,0,0,0,8,2.59l.53-.27a6,6,0,0,0,2.58-8L288.21,671.43a5.94,5.94,0,0,0-5.3-3.24M793,660.46a5.94,5.94,0,0,0-5.3,3.24L675.88,882.31a6,6,0,0,0,2.58,8l.53.27a6,6,0,0,0,8-2.59L798.86,669.38a6,6,0,0,0-2.59-8l-.53-.27a5.93,5.93,0,0,0-2.7-.65M692.55,666.4a6,6,0,0,0-5.3,3.24L575.39,888.26a5.94,5.94,0,0,0,2.59,8l.53.27a5.82,5.82,0,0,0,2.7.66,6,6,0,0,0,5.3-3.24L698.37,675.33a5.94,5.94,0,0,0-2.59-8l-.53-.27a5.82,5.82,0,0,0-2.7-.66"/><path class="cls-1" d="M739.41,892.67l-19.7,44.16a6,6,0,0,1,5,5.86v37.46a5.94,5.94,0,0,1-5.94,6H298.35a6,6,0,0,1-6-6V942.69a5.94,5.94,0,0,1,6-5.94h1l-22.53-44.08c-1.77-3.46-.2-6.31,3.54-6.31H735.46C739.2,886.36,741,889.21,739.41,892.67Z"/><path class="cls-1" d="M312,552H244.24a6,6,0,0,0-6,6v44.6a5.94,5.94,0,0,0,6,5.94H312a5.94,5.94,0,0,0,6-5.94V558A6,6,0,0,0,312,552ZM761,553.22H693.17a6,6,0,0,0-5.95,5.95v44.6a5.94,5.94,0,0,0,5.95,5.94H761a5.94,5.94,0,0,0,5.94-5.94v-44.6A6,6,0,0,0,761,553.22Z"/><path class="cls-4" d="M314.2,557.59H288.45v47.75H314.2V557.59m403.74,0H692.19v47.75h25.75V557.59M288.45,605.34V557.59H314.2v47.75H288.45m25.95-48H288.24v48.16H314.4V557.39m377.79,48V557.59h25.75v47.75H692.19m25.95-48H692v48.16h26.16V557.39"/><path class="cls-1" d="M319.65,595.77l-189-2.17c-3.62,0-5.59,2.33-4.41,5.27l27.52,68.68c.85,2.12,4,3.83,7,3.84l158.11.61c2.92,0,5.33-1.65,5.38-3.73l1.58-67.21C325.9,598.2,323.13,595.81,319.65,595.77Zm556.68-2.17-189,2.17c-3.49,0-6.25,2.43-6.18,5.29l1.58,67.21c0,2.08,2.45,3.75,5.38,3.73l158.11-.61c3,0,6.15-1.72,7-3.84l27.52-68.68C881.92,595.93,880,593.56,876.33,593.6Z"/><path class="cls-5" d="M310.41,604.36c2.87,0,5.19,1.83,5.18,4.08V619c-.15,2-1.06,4.34-1.36,4.34,0,0,0,0-.06,0-.73-.74-.27-3.78-1-7.31-.8-2-2.49-6.2-4.75-7.61-4-2.08-10.26-1.91-14.12-2.64-2.69-.27-.86-1.32,2.08-1.41h14M711.18,945.07h-14c-2.93.1-4.77,1.14-2.07,1.42,3.85.72,10.12.56,14.12,2.64,2.26,1.4,3.95,5.6,4.75,7.6.72,3.53.26,6.57,1,7.31,0,0,0,.05.06.05.29,0,1.21-2.34,1.36-4.34v-10.6c0-2.25-2.31-4.08-5.18-4.08M865.67,602H851.5c-3.47.15-5.68,1.78-2.49,2.13,4.14.92,10.4.54,13.26,2.91,1.33,1.41,1.13,5.24,1.05,6.82-.58,2.51-1.67,4.51-1.41,4.89,0,0,0,0,0,0a10.89,10.89,0,0,0,2-2.89c1.15-2.61,2.47-5.61,4-9.09,1.11-2.52.18-4.79-2.3-4.79M724.15,894.57H710c-3.47.15-5.68,1.78-2.5,2.13,4.15.91,10.4.54,13.26,2.91,1.34,1.41,1.14,5.24,1,6.81-.58,2.52-1.66,4.52-1.4,4.9,0,0,0,0,0,0a10.83,10.83,0,0,0,2-2.89l4-9.09c1.11-2.52.19-4.79-2.3-4.79M753.4,562.74h-14c-2.93.09-4.77,1.14-2.07,1.41,3.85.73,10.11.56,14.12,2.64,2.26,1.41,4,5.6,4.75,7.61.71,3.53.26,6.56,1,7.31a.06.06,0,0,0,.06,0c.29,0,1.21-2.34,1.36-4.34V566.81c0-2.24-2.32-4.07-5.18-4.07"/></g><g id="Layer_2" data-name="Layer 2"><path class="cls-6" d="M450.57,203.67a5.44,5.44,0,0,1-5.43-5.43V37.7a5.43,5.43,0,0,1,5.43-5.43h98.11a5.44,5.44,0,0,1,5.43,5.43V198.24a5.44,5.44,0,0,1-5.43,5.43ZM548.68,32.78H450.57a4.93,4.93,0,0,0-4.92,4.92V198.24a4.92,4.92,0,0,0,4.92,4.91h98.11a4.91,4.91,0,0,0,4.91-4.91V37.7a4.92,4.92,0,0,0-4.91-4.92m5.94,4.92V198.24a6,6,0,0,1-5.94,5.95H450.57a6,6,0,0,1-5.95-5.95V37.7a6,6,0,0,1,5.95-6h98.11A5.94,5.94,0,0,1,554.62,37.7Z"/><path class="cls-7" d="M664.85,72.78h21A6.06,6.06,0,0,1,692,78.72V536.57a6.06,6.06,0,0,1-6.17,5.95h-21a6.06,6.06,0,0,1-6.17-5.95V78.72A6.06,6.06,0,0,1,664.85,72.78ZM306.67,76.94V534.79a6.12,6.12,0,0,0,6.28,6h21.34a6.12,6.12,0,0,0,6.27-6V76.94a6.12,6.12,0,0,0-6.27-6H313A6.12,6.12,0,0,0,306.67,76.94Z"/><path class="cls-8" d="M671.56,103.31h-6.73V525.07h6.73V103.31m-350.23-1.19h-6.72V523.88h6.72V102.12m343.5,423V103.31h6.73V525.07h-6.73m6.93-422h-7.13V525.28h7.13V103.1M314.61,523.88V102.12h6.72V523.88h-6.72m6.93-422H314.4V524.09h7.14V101.91"/><path class="cls-7" d="M491.33,101.12,336.56,532A6,6,0,0,1,329,535.6l-19-6.83a6,6,0,0,1-3.59-7.61L461.11,90.26a5.94,5.94,0,0,1,7.6-3.58l19,6.83A6,6,0,0,1,491.33,101.12Zm17.18-1.19,154.77,430.9a6,6,0,0,0,7.61,3.58l19-6.83A6,6,0,0,0,693.5,520L538.73,89.07a5.94,5.94,0,0,0-7.6-3.58l-19,6.83A6,6,0,0,0,508.51,99.93Z"/><path class="cls-8" d="M525.14,113.64l-5.22,1.89L671.46,534.71l5.23-1.89L525.14,113.64m-64.71-1.19L308.89,531.63l5.22,1.89L465.65,114.34l-5.22-1.89m211,422.26L519.92,115.53l5.22-1.89L676.69,532.82l-5.23,1.89M525.27,113.37l-5.62,2L671.33,535l5.62-2L525.27,113.37M314.11,533.52l-5.22-1.89L460.43,112.45l5.22,1.89L314.11,533.52M460.3,112.19,308.62,531.75l5.62,2L465.92,114.22l-5.62-2"/><path class="cls-9" d="M312.62,115.07a5.43,5.43,0,0,1-5.43-5.43v-38a5.43,5.43,0,0,1,5.43-5.43H686a5.43,5.43,0,0,1,5.43,5.43v38.05a5.43,5.43,0,0,1-5.43,5.43ZM686,66.67H312.62a4.93,4.93,0,0,0-4.92,4.92v38.05a4.93,4.93,0,0,0,4.92,4.92H686a4.93,4.93,0,0,0,4.92-4.92v-38A4.93,4.93,0,0,0,686,66.67m6,4.92v38.05a6,6,0,0,1-6,6H312.62a6,6,0,0,1-5.95-6v-38a6,6,0,0,1,5.95-6H686A6,6,0,0,1,692,71.59Z"/><path class="cls-1" d="M388.87,775.33a6,6,0,0,1-6-6V563.41H298.35a5.44,5.44,0,0,1-5.43-5.43V521.11a5.44,5.44,0,0,1,5.43-5.43H701.49a5.44,5.44,0,0,1,5.43,5.43V558a5.44,5.44,0,0,1-5.43,5.43H629.37V769.3a6,6,0,0,1-6,6ZM701.49,516.2H298.35a4.92,4.92,0,0,0-4.92,4.91V558a4.92,4.92,0,0,0,4.92,4.91h85V769.3a5.52,5.52,0,0,0,5.52,5.52H623.34a5.53,5.53,0,0,0,5.52-5.52V562.89h72.63a4.92,4.92,0,0,0,4.92-4.91V521.11a4.92,4.92,0,0,0-4.92-4.91m6,4.91V558a6,6,0,0,1-6,5.95h-71.6V769.3a6.55,6.55,0,0,1-6.55,6.55H388.87a6.55,6.55,0,0,1-6.55-6.55V563.93h-84a6,6,0,0,1-6-5.95V521.11a5.94,5.94,0,0,1,6-5.94H701.49A5.94,5.94,0,0,1,707.44,521.11Z"/><path class="cls-10" d="M409.17,759.36a6.45,6.45,0,0,1-6.44-6.44V580.67a6.45,6.45,0,0,1,6.44-6.44H603a6.44,6.44,0,0,1,6.43,6.44V752.92a6.44,6.44,0,0,1-6.43,6.44ZM603,574.35H409.17a6.33,6.33,0,0,0-6.32,6.32V752.92a6.33,6.33,0,0,0,6.32,6.33H603a6.34,6.34,0,0,0,6.32-6.33V580.67a6.33,6.33,0,0,0-6.32-6.32m6.55,6.32V752.92a6.55,6.55,0,0,1-6.55,6.55H409.17a6.55,6.55,0,0,1-6.55-6.55V580.67a6.55,6.55,0,0,1,6.55-6.55H603A6.55,6.55,0,0,1,609.59,580.67Z"/><path class="cls-11" d="M589.75,586.12H566.16c-3.26.12-5.46,1-5.49,1.58,0,.18.42.54,2,.73,2,.44,4.47.71,7,1,5.67.63,12.11,1.34,16.77,4.12,3.92,2.79,6.83,11.19,8.08,14.77a65.53,65.53,0,0,1,.81,8.63c.12,2.6.21,4.66.81,5.38a23.09,23.09,0,0,0,2-8.13V593.77a7.2,7.2,0,0,0-2.18-5.11,8.92,8.92,0,0,0-6.32-2.54M693.34,523.7h-14c-1.91.06-3.1.51-3.19.73a2.47,2.47,0,0,0,1.13.27c1.22.23,2.66.37,4.19.52,3.39.33,7.22.7,10,2.15,2.36,1.46,4.1,5.84,4.84,7.71a29.87,29.87,0,0,1,.5,4.51,7,7,0,0,0,.38,2.64,10.92,10.92,0,0,0,1.13-4.07V527.57a3.24,3.24,0,0,0-1-2.37,5.55,5.55,0,0,0-3.93-1.5M545.29,35.52h-14c-1.91.06-3.1.52-3.18.74h0s.17.17,1.12.26c1.22.23,2.66.37,4.19.52,3.39.33,7.23.7,10,2.15,2.36,1.46,4.1,5.84,4.85,7.71a31,31,0,0,1,.49,4.52,7,7,0,0,0,.38,2.64A11.08,11.08,0,0,0,550.26,50V39.39a3.33,3.33,0,0,0-1-2.37,5.55,5.55,0,0,0-3.92-1.5m50.93,586.81c-.6-.72-.69-2.78-.81-5.38a65.53,65.53,0,0,0-.81-8.63c-1.25-3.58-4.16-12-8.08-14.77-4.66-2.78-11.1-3.49-16.77-4.12-2.58-.29-5-.56-7-1-1.61-.19-2-.55-2-.73,0-.55,2.23-1.46,5.49-1.58h23.59a8.92,8.92,0,0,1,6.32,2.54,7.2,7.2,0,0,1,2.18,5.11V614.2a23.09,23.09,0,0,1-2,8.13m-6.47-36.42H566.16c-4.93.18-8,2.2-3.48,2.72,6.48,1.41,17,1.09,23.74,5.1,3.8,2.71,6.64,10.79,8,14.66,1.21,6.8.44,12.65,1.67,14.09l.1.1c.49,0,2-4.52,2.28-8.37V593.77c0-4.33-3.89-7.86-8.7-7.86m107.43-43.68a7,7,0,0,1-.38-2.64,29.87,29.87,0,0,0-.5-4.51c-.74-1.87-2.48-6.25-4.84-7.71-2.79-1.45-6.62-1.82-10-2.15-1.53-.15-3-.29-4.19-.52a2.47,2.47,0,0,1-1.13-.27c.09-.22,1.28-.67,3.19-.73h14a5.55,5.55,0,0,1,3.93,1.5,3.24,3.24,0,0,1,1,2.37v10.59a10.92,10.92,0,0,1-1.13,4.07m-3.84-18.74h-14c-2.94.1-4.77,1.14-2.08,1.42,3.86.72,10.12.56,14.12,2.64,2.26,1.4,3.95,5.6,4.75,7.61.72,3.52.26,6.56,1,7.3l.06.06c.3,0,1.21-2.35,1.36-4.35v-10.6c0-2.25-2.31-4.08-5.18-4.08M528.08,36.26c.08-.22,1.27-.68,3.18-.74h14a5.55,5.55,0,0,1,3.92,1.5,3.33,3.33,0,0,1,1,2.37V50a11.08,11.08,0,0,1-1.14,4.08,7,7,0,0,1-.38-2.64,31,31,0,0,0-.49-4.52c-.75-1.87-2.49-6.25-4.85-7.71-2.78-1.45-6.62-1.82-10-2.15-1.53-.15-3-.29-4.19-.52-1-.09-1.11-.26-1.12-.26h0m17.21-.94h-14c-2.94.09-4.77,1.14-2.08,1.41,3.86.73,10.12.56,14.12,2.64,2.27,1.41,4,5.6,4.75,7.61.72,3.53.27,6.56,1,7.31l.07.05c.29,0,1.21-2.34,1.35-4.34V39.39c0-2.24-2.31-4.07-5.17-4.07"/></g><g id="Layer_3" data-name="Layer 3"><g id="Neutral_mouth" data-name="Neutral mouth"><polygon class="cls-12" points="466.44 725.26 539.57 726.84 528.08 733.61 475.31 736.45 466.44 725.26"/><path d="M466.58,725.33l72.75,1.57-11.25,6.64-52.74,2.84-8.76-11m-.28-.14,9,11.33,52.84-2.85,11.68-6.89-73.5-1.59Z"/></g><g id="right_normal" data-name="right normal"><ellipse class="cls-9" cx="443.07" cy="649.21" rx="31.8" ry="31.49"/></g><g id="Right_Pupil" data-name="Right Pupil"><ellipse cx="442.9" cy="648.54" rx="10.81" ry="11.29"/><path d="M442.9,637.33a11.23,11.23,0,1,1-10.74,11.21,11,11,0,0,1,10.74-11.21m0-.15a11.38,11.38,0,1,0,10.89,11.36,11.13,11.13,0,0,0-10.89-11.36Z"/></g><g id="left_normal" data-name="left normal"><ellipse class="cls-9" cx="568.78" cy="649.21" rx="32.15" ry="32.25"/></g><g id="Left_Pupil" data-name="Left Pupil"><path d="M568.74,659.83c-6,0-10.82-5.12-10.82-11.43S562.78,637,568.74,637s10.82,5.13,10.82,11.43S574.7,659.83,568.74,659.83Z"/><path d="M568.74,637c5.92,0,10.74,5.1,10.74,11.36s-4.82,11.36-10.74,11.36S558,654.66,558,648.4,562.82,637,568.74,637m0-.14c-6,0-10.89,5.15-10.89,11.5s4.88,11.51,10.89,11.51,10.89-5.15,10.89-11.51-4.88-11.5-10.89-11.5Z"/></g></g></svg>